/* XPM */
static char *result[] = {
/* columns rows colors chars-per-pixel */
"50 50 247 2 ",
"   c #000000",
".  c #0C0100",
"X  c #130200",
"o  c #1B0300",
"O  c #250200",
"+  c #2B0300",
"@  c #2A0A00",
"#  c #330400",
"$  c #3C0000",
"%  c #330900",
"&  c #3C0B00",
"*  c #371D0B",
"=  c #0B3402",
"-  c #183904",
";  c #233B04",
":  c #2B3F06",
">  c #322515",
",  c #323124",
"<  c #480200",
"1  c #430D00",
"2  c #4B0D00",
"3  c #530D00",
"4  c #590A00",
"5  c #461200",
"6  c #4C1200",
"7  c #551300",
"8  c #5B1400",
"9  c #571801",
"0  c #690900",
"q  c #780800",
"w  c #621500",
"e  c #6B1400",
"r  c #641A00",
"t  c #6C1B00",
"y  c #771300",
"u  c #741C00",
"i  c #7B1D00",
"p  c #4E2417",
"a  c #6B2300",
"s  c #742200",
"d  c #7D2300",
"f  c #7A2900",
"g  c #742E19",
"h  c #0C4103",
"j  c #184405",
"k  c #284405",
"l  c #394709",
"z  c #2F5707",
"x  c #307A0D",
"c  c #4B560C",
"v  c #7B4906",
"b  c #625A1C",
"n  c #6D690A",
"m  c #880700",
"M  c #950900",
"N  c #841300",
"B  c #8B1300",
"V  c #831C00",
"C  c #8B1D00",
"Z  c #981701",
"A  c #A91D00",
"S  c #842300",
"D  c #8B2400",
"F  c #852B00",
"G  c #8B2C00",
"H  c #932500",
"J  c #932B00",
"K  c #9B2802",
"L  c #9C2B00",
"P  c #8B3100",
"I  c #933300",
"U  c #9C3200",
"Y  c #9B3A00",
"T  c #A32500",
"R  c #A52D00",
"E  c #AC2D00",
"W  c #B92801",
"Q  c #A43300",
"!  c #AC3200",
"~  c #A73801",
"^  c #B33400",
"/  c #BA3500",
"(  c #B43B00",
")  c #BC3C00",
"_  c #A83614",
"`  c #8C3524",
"'  c #D31A00",
"]  c #EA1500",
"[  c #FF1800",
"{  c #CF2600",
"}  c #C83700",
"|  c #C33B00",
" . c #D33C00",
".. c #D93900",
"X. c #F22700",
"o. c #E93B00",
"O. c #F33500",
"+. c #FF3400",
"@. c #FF3A00",
"#. c #8E5407",
"$. c #A74402",
"%. c #B44200",
"&. c #BB4300",
"*. c #B04800",
"=. c #BE4B00",
"-. c #AE500D",
";. c #92790C",
":. c #AF6E0E",
">. c #B45023",
",. c #8D7D32",
"<. c #B27326",
"1. c #C34300",
"2. c #CB4400",
"3. c #C34B00",
"4. c #CC4C00",
"5. c #C14A0E",
"6. c #D34200",
"7. c #DB4400",
"8. c #D44A00",
"9. c #DB4B03",
"0. c #CC5101",
"q. c #CA5500",
"w. c #D45200",
"e. c #DA5400",
"r. c #D65900",
"t. c #DA5A00",
"y. c #C5551B",
"u. c #E74800",
"i. c #ED4C00",
"p. c #F34400",
"a. c #FF4301",
"s. c #F54A01",
"d. c #FE4B01",
"f. c #E25300",
"g. c #EC5400",
"h. c #E35B00",
"j. c #EA5D00",
"k. c #EA530A",
"l. c #F45400",
"z. c #FF5400",
"x. c #F75906",
"c. c #FE5B00",
"v. c #F95918",
"b. c #C66A05",
"n. c #CE6F10",
"m. c #E36100",
"M. c #EA6400",
"N. c #F36300",
"B. c #FE6400",
"V. c #F36B00",
"C. c #FE6A03",
"Z. c #FF6A1A",
"A. c #FF7212",
"S. c #C25D26",
"D. c #D27526",
"F. c #F0762B",
"G. c #0A8803",
"H. c #148904",
"J. c #1B8D05",
"K. c #0D9603",
"L. c #139304",
"P. c #1D9306",
"I. c #159A05",
"U. c #1C9B06",
"Y. c #218E07",
"T. c #268A09",
"R. c #219407",
"E. c #229B07",
"W. c #259508",
"Q. c #2B950A",
"!. c #259B08",
"~. c #2C9C0A",
"^. c #32940B",
"/. c #3B940E",
"(. c #339C0C",
"). c #3B9D0E",
"_. c #349212",
"`. c #1CA406",
"'. c #22A407",
"]. c #26A309",
"[. c #2CA30A",
"{. c #2DAB0A",
"}. c #34A30C",
"|. c #3CA40E",
" X c #34AB0C",
".X c #3CAB0E",
"XX c #39B40D",
"oX c #2BAF10",
"OX c #38A615",
"+X c #459311",
"@X c #479B12",
"#X c #42A40F",
"$X c #42AB0F",
"%X c #41B40F",
"&X c #41B90F",
"*X c #44A211",
"=X c #4AA512",
"-X c #45AA10",
";X c #4AAB12",
":X c #48A31F",
">X c #54A716",
",X c #52AD13",
"<X c #4CB312",
"1X c #48B813",
"2X c #56B615",
"3X c #67A219",
"4X c #5A8B2B",
"5X c #668D32",
"6X c #789A36",
"7X c #59A924",
"8X c #52AE28",
"9X c #6CAC31",
"0X c #76BA36",
"qX c #56C715",
"wX c #60C01D",
"eX c #6CAC45",
"rX c #A98910",
"tX c #908E38",
"yX c #B18D3A",
"uX c #87B03C",
"iX c #FF871C",
"pX c #D28D36",
"aX c #FF8637",
"sX c #F09032",
"dX c #D8A73C",
"fX c #F6A93A",
"gX c #A99941",
"hX c #BB9949",
"jX c #93B54F",
"kX c #B3B14D",
"lX c #A3BB54",
"zX c #D89347",
"xX c #E59D49",
"cX c #F99A4C",
"vX c #C8AD4A",
"bX c #D6A849",
"nX c #CEB24E",
"mX c #EAAC4A",
"MX c #F7A846",
"NX c #FDB947",
"BX c #CDBA66",
"VX c #87C747",
"CX c #A8C657",
"ZX c #B7C255",
"AX c #B1C763",
"SX c #E5C754",
"DX c #D3CC6C",
/* pixels */
"2X|.!. Xx +X[.(.~.H.!..X;X(.-X.X].[..X(.!.~.|.}.*X>X|.}.{.{.<X;X}.!.P.Q.*X,XOX*Xx L.].!.R.Q.}.[.J.!.",
"XX XE.Y.|.$X}.G.!.~.[.[.R.U.U.|..XJ.T.(.*X~..X}.W.).).*X.XOX}.W.U.U.(.OX|.|.W.).@XQ.(.|.(.G.E.~.J.H.",
"$X'.K.W.&X|.^.K..X;X0XnXlXU.J.).3XlXvXnXvXnX9X|.P.}.uXnXvXvXbXVXG.Y.OX8XkXbXjXOX2X<X).<X}.R.E.U.~.Q.",
"*X,X}.}.^.#X).H.2X1XtX[ dX~.~.W.7XxX+.a.+.F.6X.XW.~.CXd.+.@.a.kXOX XOXeXsX[ D.OX X|.W.2X{.~.!.L.$X=X",
"].|.#XH.!.1X2X^.<X%X6X[ bX~.|.~.:XbX+.a.+.F.uX%XU.W.lXd.+.@.a.kXwXXXE.8XsX[ yX>X+X!.R.,XP.|.^.L.XX}.",
"`.~.(.XXXX#X@X}.$X(.jX] vXOX|.OX:XbXo.i.o.F.VXQ.].OXCXk.o.p.u.lX2X7X~.8XpX] hX@Xx ).(.-X{..X=X!.'.[.",
"(..X{.qX<X#X~.-X.X|.5Xm pXCXlXlXAXzXq e e >.DXjXlXCXDX_ 0 w G nXCXlXZXDX:.m b T.*X#X).$X}.K.&X#X!.#X",
"=XU.L.).=X}.[.=X).}.6X..z.N.T U C.x.} 1 K x.C.3.D f.B.z.s 9 p.B.l.S &.c.z.7.; ^.).#XI.!.$XU.Y.=X&X$X",
" XQ.!.^.^.).}.].(.#X6XW W Z $ 2 W W ! 1 D } W y O B W } u 8 / W Z + 0 A } ! l T.W.U.x U.2X<X@X-X{.R.",
"'.=X2X(.|.).J.XX%X$X6XC + d 1.&.d 1 Q 1.! 9 7 ^ 1.L # a ) 1.d & I 1.1.9 1 Z ,._.[.K.G.~.,X,X,X#XE.P.",
"(.,X,X}.|.#XQ.|.#X.X6X) e ( m.m.%.H f.h.f.R H h.h.8.y Y h.m.=.C q.m.h.F D { gX>X|.R.R.-X%X~.P.@X[.`.",
"(.|.|.[.[.~./.x ~.!.4XN s F u o o   o % F F F s 8 d f P t + X   o O d F f D c Q.!. X!.}.#X'.{.3X#X[.",
".XI.R.^.}.{.|.x |.W.6XO.c.c.H         @ 8.B.B.~ 8 8.B.C.G           ) B.B.l.: ^.P.P.}.}.J.(.2X<X|.[.",
"-X(.).)..XXX-X@X).+X4Xm u H a X       o D H D V 8 S V L d X       . S D S C l *X|.W.}.).[.~.=X$XH.~.",
"!.;X,X~.[.W./.).}.Q.6XW O I c.w       % 7.D 8 u.z.| + F B.r       X 2.a 1 ' pX-X}.}.~.(.$X.X!.$X(.(.",
"#X(.%XR.[.R.Q.[.|.[.6XE 3 Q 4.5       @  .R V  .3./ 4 U 0.6       X &.F e { tX~.[.=X#X^.J.).~. X[.H.",
"E.%X$X!.XX1X.X}..XOX5XA &.&.t         @ ~ &.&.G 7 Q &.3.u         X J &.&.~ - Q.H.!.$X~.|.~.I.(.~.G.",
"G.(.).'.XX<X-X|.|.L.6X} h.h.S         & 4.m.m.Y e 1.M.m.F         o %.h.M.w.= _.@XR.I.~.;X[.`.|.}.$X",
".XH.R.$X.X^.-X(.W.U.tXV 4 S F @       o H V t H s D 8 D G @       . D i w Z c @X2X(.~. X~.~.<X}.~.;X",
";XQ.E.2X<X<X-X-X X=XuX' O ~ C.8       O O.A w z.B.7.O T z.3         g.S < ] gX>X=X}.(.}.K.H.,X}.!.W.",
"|.2X9X8X#X-X>X,X7X9XeX` p V D & 5 > , p ` g t K G C p g >., , * # o S y p ` 6X:X8X-XR.E.!.(.:X9X-X`.",
").dXbXjXH./.2X0XbXzXpX<.bX0.4 V Z.bXpXpXyXhXF.C < / sXhX<.D.xXxXs.y Z D.zXyX<.pXBX>X!.L.~.BXzXxXkX}.",
"(.s.@.kXW.OX%XVXz.[ @.Z.NXS.0 r D.NXC.z.B.sXsXS 4 $.MXiXz.d.iXNX>.4 C pXfXc.z.[ aX3XQ.P.|.MXX.+.b.^.",
"Q.b.x.jX[.-X].9XA.@.a.v.sX_ M M _ sXB.@.z.iXy.m M Z pXZ.a.@.Z.pXA M M >.iXz.d.+.cX:X.X'.L.vX@.c.rXP.",
"|.-.=.AXOX:X8XVXD.W  .-.xXaXv.Z.aXxX%. .1.D.cXZ.Z.F.MXS.} } y.mXF.v.v.cXpX1.8.W bX0X1XoX_.BXW 8.;.U.",
" Xv J fXkXhXnXmX5.e 3 K sXNXsXfXNXD.y 7 e y.fXMXcXNXfX>.4 4 U cXNXxXcXNXy.i 2 i D.SXhXhXZXsXL 9 l J.",
"~.=.s.d...< / d.d.L & s.z.k.g g B.z. .% L c.c.-.9 9.x.z.t 6 a.c.k.p $.c.c.Q O 7.d.d.B 0 p.d.c.5 k (.",
"~.#.D y B O 0 N D C 8 L V q $ < M V J 4 S H B 0 # 0 N T u w K N q # 0 N D S 4 L V B < < N y E 8 z ).",
"}.:.E 9 w.h.w.t a t.h.*.6 ~ M.h.I 7 4.h.8.d s t.M.8.9 F t.m.Y 2 *.j.h.a t 4.h.4.7 R e.h.} r &.t.rX}.",
"XX#.H 7 %.3.%.w r =.3.Y 2 G 3.3.F 7 ( 3.%.D Q 4.4.&.V Q =.=.G < Y 3.=.r w %.3.&.6 H &.3.! 7 ~ =.n .X",
"Q.-./ ( ( 4 L ( ) T 8 } ( ^ e u &.( Q 8 H 9.r o X X & 7.D e ) ( / 8 L ) ( K 3 ! ) %.V t ( ( | r j $X",
"!.:.p.z. .% R c.z.K % u.c.i.1 r z.c.| 2 2.1.o       X D H u u.B.u.% H z.c.L + 1.z.c.u 7 i.z.l.5 j (.",
"&X#.u e L i H t u K V H r S D D D w H K a o             & L F 8 H S K u t D i L t V S S D r K d b .X",
">Xb.W 9 l.B.g.t s B.B.4.1 ! C.c.Q 3 g.c.&                 2.4.2 1.B.C.s t g.B.l.7 E c.c. .w 7.B.rX=X",
"+X#.i 3 U G G w 8 I G F 3 d P G d 3 Y f X                 a H 3 S P I r w G G U 7 V G G D 7 J P n ).",
" X:.6.e.1.w ) e.e.( e 9.r.8.V f t.e.w.8                   F r.e.9.e Q e.t.! w &.e.r.J S 0.e.e.t - |.",
".X#.( } Q % S 4.| d % ( 6.( 2 7 2.4.( &                   r 3.6.^ & i 1.8.S + U 2.2.r 5 ( 2.&.5 j =X",
"[.-.V 7 / ^ ^ 8 t | ^ R 1 D | ( D 2 / L X                 S R 2 L ( | t 8 ! ^ / 7 V ^ ^ K 7 E ! n !.",
"}.b.K 2 s.z.d.2 r c.z.6.+ R c.z.K % s.s.O                 ( } + | c.z.t 1 s.z.s.1 D d.z./ 5  .z.rXE.",
"2Xv i e D 9 d u u d w S t i r t D t J 7                   9 H t S 8 d u i i 9 D t S u r D t H 8 c .X",
"%Xb.g.x.r.w 2.B.x.) t g.C.g.D F N.N.j.t                   J M.B.g.u ~ x.C.| w q.N.N.U D h.N.N.s h ).",
"|.v S G D 1 d P F d 5 D G F 9 9 I F I 1                   9 I G G 2 s G P s 1 F G I w 7 G F I 6 j .X",
"E.b.E e u.e.8.u d h.f.1.8 ~ h.f.! e h.3.O                 Y 2.w &.e.h.S i 8.f.u.t ^ u.f. .t 7.f.rX1X",
"[.-.i 1 | 6.| 1 7 8. .Q + S 7. .d % | ! o                 G L % L 7.8.9 1 ) 6.) & u | 2.J 1 E 1.;.|.",
".X#.K R J & i ! R i 1 L E L 6 8 ( E R 1                   9 ^ Q K 5 u E ^ i & H Q ! w 7 R R Q 6 k .X",
"!.b.s.z.u.9 | c.c./ r s.c.g.u S c.B.l.w                   H c.c.s.8 ^ c.B.( 3 8.c.c.J s g.c.c.t j }.",
"[.#.i t J u D a t H u G r d d d S r L r                   a J r G s D s a S s D t d d u F r D s z ).",
"XXn...S j.N.M.L I V.V.r.V 2.V.N.&.D M.r.+                 $.g.C 0.V.V.I T M.N.N.S  .N.N.s.H f.V.rX X",
".X#.t 5 L J I 6 9 Q J F & s R J s 1 L f X                 a G & S I R 8 6 J L I 5 t J I d 5 S P n `.",
"|.z k - ; : ; ; - - ; k j - l k - - k k - = = j - k j h = - ; - k k ; - - : ; ; ; ; k k ; - - k z J."
};
