/* XPM */
static char *result[] = {
/* columns rows colors chars-per-pixel */
"50 50 236 2 ",
"   c #010000",
".  c #0D0600",
"X  c #020A02",
"o  c #160906",
"O  c #031201",
"+  c #041905",
"@  c #1B1109",
"#  c #140A13",
"$  c #250407",
"%  c #361809",
"&  c #2D1B12",
"*  c #0A2302",
"=  c #0E2E03",
"-  c #063605",
";  c #153205",
":  c #023214",
">  c #1F3E11",
",  c #282E05",
"<  c #3A2F18",
"1  c #18162A",
"2  c #353329",
"3  c #551C04",
"4  c #5B1310",
"5  c #5E1918",
"6  c #472814",
"7  c #4E3314",
"8  c #722600",
"9  c #713012",
"0  c #763812",
"q  c #563328",
"w  c #6C3828",
"e  c #713B20",
"r  c #154805",
"t  c #085801",
"y  c #1A5508",
"u  c #0B4F13",
"i  c #255709",
"p  c #225710",
"a  c #186D05",
"s  c #027705",
"d  c #006817",
"f  c #007019",
"g  c #256808",
"h  c #277A0A",
"j  c #39730D",
"k  c #397511",
"l  c #364022",
"z  c #076A25",
"x  c #026C2A",
"c  c #097629",
"v  c #147425",
"b  c #006731",
"n  c #2D7029",
"m  c #744111",
"M  c #496E0C",
"N  c #4F5723",
"B  c #7F4120",
"V  c #774D2E",
"C  c #676726",
"Z  c #68733F",
"A  c #12365B",
"S  c #011B69",
"D  c #004C69",
"F  c #754B4C",
"G  c #5C7455",
"H  c #7A754C",
"J  c #92171A",
"K  c #852A1D",
"L  c #865111",
"P  c #947411",
"I  c #8B5226",
"U  c #905031",
"Y  c #A25B2C",
"T  c #996E2E",
"R  c #A47834",
"E  c #8D5B4A",
"W  c #8A4F54",
"Q  c #A5584D",
"!  c #8B6440",
"~  c #936447",
"^  c #AA7150",
"/  c #9B6563",
"(  c #028300",
")  c #088801",
"_  c #0C8B02",
"`  c #148405",
"'  c #138C04",
"]  c #1C8907",
"[  c #1B8D06",
"{  c #0E9203",
"}  c #0A9A02",
"|  c #149404",
" . c #1C9406",
".. c #149904",
"X. c #1C9B06",
"o. c #1F9308",
"O. c #218E07",
"+. c #29830A",
"@. c #248D08",
"#. c #2D8D0B",
"$. c #38860E",
"%. c #358D0D",
"&. c #229407",
"*. c #229C07",
"=. c #259408",
"-. c #2B940A",
";. c #259B08",
":. c #2C9C0A",
">. c #32950B",
",. c #3B950F",
"<. c #339C0C",
"1. c #3B9D0E",
"2. c #3B831B",
"3. c #06A101",
"4. c #1CA206",
"5. c #19A406",
"6. c #22A407",
"7. c #23A907",
"8. c #26A208",
"9. c #2CA30A",
"0. c #2CAB0A",
"q. c #34A30C",
"w. c #3BA30E",
"e. c #34AB0C",
"r. c #3CAB0E",
"t. c #2DB509",
"y. c #34B30B",
"u. c #3CB20E",
"i. c #3EB80E",
"p. c #3EA210",
"a. c #08872D",
"s. c #0B8E2F",
"d. c #1D9828",
"f. c #009130",
"g. c #359A29",
"h. c #2F8F32",
"j. c #24A424",
"k. c #3AA828",
"l. c #2FAD33",
"z. c #28B837",
"x. c #41990F",
"c. c #478717",
"v. c #528C17",
"b. c #439C10",
"n. c #499A12",
"m. c #42A40F",
"M. c #41AB0F",
"N. c #42B30F",
"B. c #44B90F",
"V. c #44A310",
"C. c #4AA411",
"Z. c #45AB10",
"A. c #4BAB11",
"S. c #52AC13",
"D. c #56A914",
"F. c #45B210",
"G. c #4BB212",
"H. c #46BC10",
"J. c #4CBA12",
"K. c #53B313",
"L. c #5BB315",
"P. c #54BA13",
"I. c #5CBC15",
"U. c #6BA21A",
"Y. c #549333",
"T. c #61912B",
"R. c #49AA29",
"E. c #42B92F",
"W. c #65A32D",
"Q. c #1FCA2D",
"!. c #59C315",
"~. c #68C518",
"^. c #7AC41E",
"/. c #53C930",
"(. c #779457",
"). c #518679",
"_. c #BE9400",
"`. c #BFA50E",
"'. c #ACBF10",
"]. c #B1912C",
"[. c #BFA929",
"{. c #CEB415",
"}. c #C2A62B",
"|. c #D3D30B",
" X c #D9CA16",
".X c #ECD415",
"XX c #D6F009",
"oX c #F2EA09",
"OX c #F4F802",
"+X c #FEFE02",
"@X c #DBC526",
"#X c #EDD230",
"$X c #D9FF3E",
"%X c #FEE82B",
"&X c #AF8947",
"*X c #8FAF4C",
"=X c #81A062",
"-X c #D29452",
";X c #E08756",
":X c #D1A759",
">X c #E2B054",
",X c #CA9D73",
"<X c #D4B672",
"1X c #EAAE65",
"2X c #F8CE57",
"3X c #FFC864",
"4X c #103798",
"5X c #456AB1",
"6X c #6A9FF5",
"7X c #07E8FE",
"8X c #AE898C",
"9X c #8C95A4",
"0X c #C79F81",
"qX c #C6A48F",
"wX c #D6B388",
"eX c #D5BC97",
"rX c #E9B989",
"tX c #8DD997",
"yX c #F3C999",
"uX c #D1CBA5",
"iX c #FBC4A2",
"pX c #E8D5AE",
"aX c #F4DAA8",
"sX c #FCD9B3",
"dX c #FCE6B9",
"fX c #91A5D0",
"gX c #E5D2C7",
"hX c #FCEBC2",
"jX c #FFF3CB",
"kX c #E5E5D0",
"lX c #FFFFD9",
"zX c #EDE3EC",
"xX c #FFFFE5",
"cX c #FFFFEB",
"vX c #FFFFF4",
"bX c #FFFFFE",
/* pixels */
"P.V.=.e.+.c.0.q.9.' ;.M.A.<.M.r.9.9.r.<.-.;.r.<.m.C.w.e.0.0.K.A.q.*. .-.V.A.r.b.h  .6.;.[ -.q.:.&.;.",
"u.0.6.O.b.M.:._ -.-.;.9.&.X.X.w.r.[ @.<.m.-.r.w.-.1.1.m.w.e.q.&.*.X.<.m.w.p.;.m.n.>.<.w.<._ ;.9.[ ' ",
"M.7.{ =.N.m.>.{ r.A.Z.;.....[ 1.C.&.0.0.w.>.>.1. .q.m.q.:.%.e.4.( =.w.X.e.q.-.;.J.A.1.G.w. .X. .:.:.",
"V.S.q.<.-.m.1.| K.J.=.w.w. .:.=.<. .0.9.=.O.;.M.;.:.q.&.F.F.M.w.;.0.r...r.m.e.;.r.w.-.P.0.:.;.| m.C.",
"8.w.m. .;.J.S.,.G.F.=.1.p.:.w.:.X.e.m.-.1.G.F.M. .&.<.-.S.~.M.V.!.0.X. .-.M.e.m.x.-.&.C. .m.>...y.q.",
"4.:.<.y.y.M.C.q.u.1.A.b.-.8.9.9. .N.K.<.<.~.G.&.4.r.w.M.q.w.1.:.I.A.&.=.;.<.r.<.c.1.q.G.0.r.C.8.7.:.",
"<.r.0.!.G.1.:.M.M.q.p.r.q.:.e.q.O.q.C.;.*.S.Z.' X.0.B.u.o.=.w.y.-.C.L.A.i.I.D.-.<.m.>.M.q...N.1.:.m.",
"C.X.{ 1.C.w.9.C.<.q.<.e.0.-.1.1.M.m.<._ <.Z.V.:.w.w.A.<.:.1.K.P.X.:.S.C.q.N.w.<.1.w.X.&.M.X.o.C.H.M.",
"e.-.;.>.<.1.w.8.<.w.F.A.;.` b.Z.J.-.X.0.q.p + a.c v c s.* i C.<.4.w.1.<.;.o.1.=.-.=.s | I.K.b.A.7.;.",
"8.m.K.<.w.1.[ y.N.Z.r.r.,.p.V.r.C.9.4.q.r : v g.g.g.g.k.v : r _ X.:.N.:.) o.1.=.9.;._ <.S.A.S.w.&. .",
"1.C.K.1.q.1.-.w.m.w.=.;.u.r.<.H.F.-.] g + x l.R.R.R.R.R.l.z + t ] 9.q.<.-.O.1.M.w.&.X.N.r.9. .n.q.4.",
"q.r.w.9.q.:.,.+.q.;.X.;.y. .<.A.:.<.y X c c v v x x x c x a.c X y ;.q.e.,.S.I.9.*.e.:.q.w.;.0.U.M.8.",
"r...&.>.q.t.w.k w.&.[ m.m.[ q.;.Z.i - z l.d.a.s.d.j.d.a.d.j.j.z - r  .4.0.I.P.1. .&.:.w.[ <.I.G.1.9.",
"Z.<.1.<.w.e.A.n.x.1.*.;.-.<.8.&.Z.+ u z.T.U.^.^.W.T.W.^.W.Y.W.z.u O =.s e.N.*.A.1.*.q.w.q.<.m.M.' -.",
"=.C.S.q.9.=.$.q.1.-.&._ ;.F.o.>.-.+ p /.Q #X+X+X^ Q -XOX-XQ ^ /.u + C.:.-.M.r.q.q.w.-.<.N.q.*.A.<.<.",
"m.q.N.&.q.&.:.9.q.9.;.J.!.r.] ,.+ d h.^ F oXoX~ oX[.E +X+X{.W ].Y.d * G.x.=.S.6.*.C.m.<.[ 1.:.e.9.| ",
"*.F.u.;.i.J.N.q.r.w.=.r.9.v.W.*X$ p H ;X[.#X@X].@X@X[.%X X@X}.^ Z p o *X*Xv...9.' ;.Z.-.w.-.X.:.<.( ",
"_ <.1.*.y.F.m.w.q.| -.-.*.T 0XwX0 8 Q 2X+X>X>X+XE [.+X1XW ].+X&XU K 0 wX<XT ( <.C.X.X.;.S.8.5.r.1.Z.",
"r.` =.Z.w.<.M.<.=.X.P.<.9.3 eXcXkX^ {.+X~ .X.XE F  X+XT 0X0XR OX`./ kXbXeX3 | V.K.<.;.r.;.-.F.q.9.Z.",
"V.:.X.P.K.A.C.M.e.C.A.:.=.j H qXjXW P @X/ oX+X[.:X].P &XpXeXI %X].^ dXqXH M ;.S.C.r.<.9...` S.w.;.=.",
"w.J.F.V.m.A.C.A.q.C.;.7._ ;.M m uXV e ^ 1X%XOXOX2XU w eXxXpXT -X].&XuX0 M r.e.4.u.w.=.*.*.| -.M.9.4.",
"1.D.V.=.' ,.L.y.-.p. .q.w.V.P.h.7X$X_.4 2X3X:X^ 3 E aXhXxXlXyX5 _.$X7Xh.:.q.:.} *.1.=.| :.F.q.Z.K.e.",
"<.1.8._ =.r.F.<.&.q.X.9.C.b.9.k.D XX.XW , R -XV ! qXjXjX,XU 2 F .XXXD d.Z.M.1.] ' V.>. .p.J.G.Z.V.>.",
":.X.Z.<.:.Z.8.r.-.=.;.*.:.h &.$.X |.#X~ 2 F ! 3 wXlXdX,Xw 1 2 ~ #X|.  +.M.r.Z.L.w.<.Z.4. .w.K.A.:.o.",
"q.A.A.V. .;.A.Z.M.q.,.;.X.8.:.M   <X].w bX6XS 8 pXcXuX4 S 6XvXw &X1X  a :.r.0.V.D.C.t.} O.w.!.D.=.*.",
"w.A.V.q.' 3.V.1.F.G.X.-.o.e.<.-.h < & < xX5X4XgXdXdXdXgX4X5XxX< , 7 h -.<.<. .:.w.F.| s <.w.p.D.p.=.",
"<.w.V.w. .) 8.q.w.C. .y.M.q.X.X.F.g = @ wX9XfXbXjXsXjXbXfX9XwX@ * i K.=.' =.1.C.P.w.@.<.y.e.X.q.A.:.",
"-.*.8.q.:.[ V.Z.q.F.A.-.q.w.:.9.b.1.g @ L aXlXdXhXhXdXdXxXaXL @ t =.C.:.=.=.=.r.D.<.:.L.H.0. .:.A.1.",
"e.' =.*.<.r.F.,.9.8.N.<.' <.N.q.1.- - s B 0 Q dXiXiXiXsXQ K L d - - q.G.J.r.X.q.K.A.:.<.| X.m.q.e.p.",
"u.;.<.-.q.H.B.V.r...-.w.&.e.y.@.i 1 ).tX7 , N =X(.(.(.=Xn , 7 tXG . t n.e.7.<.A.r.L.q.;.' w.L. ._ r.",
"-.r.q.1.q.;.q.S.Z.X.%.1.;.>.>.t o A fXzX> f f.f f f f f f.f > zX8X$ o j ;.| w.;. .F.-.6.q.V.r.o.[ p.",
";...&.;.*.-.o.>.<.' q.r.q.q.r @ 8 8 % # J n f.a.b b x f.f.n J # % 8 9 $ r :.u.q.X...( r.F.[ =.r.9.<.",
"B.|  .=. .e.;.<.-.[ :.r.<.:.; < 1XsXH X T.N 7 N '.|.'.N q C T.X H gXrX6 = q.m.C.=.) =.M.y.u.;.e.V.u.",
"D.-.4.r.8.4.p.q.w.F.X.6.m.1.g 2 uXkX9X- Q.C K e |.+X|.e K C Q.- (.zXuXl i m.m.>.-.w.A.<.-.K.<.;.<.A.",
"b.,.1.e.>.;.Z.{ q.C.e.4.<.c.,.h       X c E.k.x x b x x E.E.c X       g q.-.-.0.H.m.&.<.A.<.;.-.1.p.",
"e.Z.9.[ >. .q.1.#.o.1.;.X.-.q.w.j +.r X + v z./.k.l.k.E.z.c +   y +.a &.<.;.w.0.w.K.X.X.9.{ X.V.M p.",
"r.P.X._ <.>.<.<.) 4.b.C.8.:.r.<.1.$.r % o : z c.2.2.2.c.x : $ % i s e.:.-.K.r.X.q.m.<.r.o.s 7.i.:.V.",
"9.K.#.9.Z.q. .5.0.9.C.m.X.;.<.:.@.+ 6 I q #     X X       # q U 6 O m.m.O.>.1.<.L.M.@.m.w.[ :.M.q.;.",
"1.w.u.F.<.#.4.X.C.K.M.X.3.5.q.<.<.O 6 Y I w &   h %.g   & w U Y 6 X >.w.w.w...=.K.A.] :.m.,.>.M.M.&.",
"L.:.u.y.,.x.| ] x.L.K.7.0._ -.q.C.i , q 7 6 & i q.5.{ r & 6 7 7 , y M.L.N.r.&.:.u.;.q.G.<.<.1.N.P.e.",
"Z.=.C.:.r.M.O.J.M.w.1. .b.m.<.X.<.1.g X O X - 6.-.6...<.r X O X g q.u.r.b.1.w.:.A.e.:.q.7.y.L.q.X.1.",
"1.:.m.<.r.b.w.!.A.*.;.w.w.J.i.;.m.Z.;.1.&. .&.0.q.<.o.X.@.;.;.-.w.e.| 9.A.V.,.-.L.C.=.7.6. .w.r.&.w.",
";.r.G.e.:.w.:.;.0.X.N.L.J.B.G.I.<.<.;.9.e.q.:.=.C.1.9...| e.:.-.<.;.[ q.r.y.e.>.&.;.6.*.>.&._ w.~.i.",
"<.m.C.M.-.:.<.` ( ;.K.1.v.A.r.K._ &.V.q.<.X.5.:.M.q.o.q.q.K.-.9.%.` F.e.=.<. .@.' X.e.-.b.w.] O.K.w.",
"M.M.C.A.M.&.M.D.%.<.*.*.n.#.1.=. .w.:.1.-.=. .-.q.9.:.V.p.C. . .Z.q.M.w...&.' @.%.[ &.Z.M.M v.t.w.w.",
":.1.m.A.!.=.-.P.:.=.;.:.0.:.>.O.r.9.;.1.C.V.-.-.:.m.q.w.9.e.<.=.q.F.V.b.F.e.F.:.,.| e.J.w.,.V.J.9.w.",
":.<.:.:.S.<.<.q._ &.-.1.9.0.[ 1.A.-.8.6.C.S.$.$.w.1.r.B.u.r.-.q.7.-.C.Z.A.r.V.<.e.6.e.1.V.G.<.<.:.1.",
"B.M.| &.@.>.J.=.=.N.F.>.x.:.( X.&.1.9.X.;.q.b.+.u.r.>.w.I.r.{ w.&._ <.N.r.q.9.<.e.1.] -.G.G.<.1.:.r.",
"w.P.;. .0.r.C.-.9.X.B.-.j q.=.<. .&.p.w.*. .u.X.&.A.w.&.w.<.{ [ =.q.q.w.q.F.8.<.K.m.=.q.A.X.;.Z.;.7.",
"m.w.N.8.-.w.-.C.e.( -.M.8.0.K.G.*.,.G.r.r.| :.m.1.P.B.;.` -.:.q.r.M.;.&.>.C.:.-.V.w.u.7.w.&.| :.&.[ "
};
