/* XPM */
static char *result[] = {
/* columns rows colors chars-per-pixel */
"50 50 102 2 ",
"   c #007D00",
".  c #2C7E0B",
"X  c #377111",
"o  c #497515",
"O  c #038300",
"+  c #0C8502",
"@  c #048A01",
"#  c #0C8B02",
"$  c #148304",
"%  c #1C8607",
"&  c #148C04",
"*  c #1B8D06",
"=  c #1F8E08",
"-  c #069201",
";  c #0D9202",
":  c #049E00",
">  c #0D9B02",
",  c #149304",
"<  c #1C9406",
"1  c #159A04",
"2  c #1C9B06",
"3  c #1F9308",
"4  c #208707",
"5  c #218E07",
"6  c #268509",
"7  c #2F810D",
"8  c #238D08",
"9  c #2C8E0A",
"0  c #34870D",
"q  c #348D0D",
"w  c #3C8D0F",
"e  c #229407",
"r  c #229C07",
"t  c #259408",
"y  c #2B940A",
"u  c #259B08",
"i  c #2C9B0A",
"p  c #32950C",
"a  c #3B950E",
"s  c #339C0C",
"d  c #3B9D0E",
"f  c #3F8510",
"g  c #3F9C10",
"h  c #06A101",
"j  c #16A105",
"k  c #1CA306",
"l  c #1DA907",
"z  c #22A407",
"x  c #21A907",
"c  c #26A308",
"v  c #2CA30A",
"b  c #26AA08",
"n  c #2CAB0A",
"m  c #34A30C",
"M  c #3BA30E",
"N  c #34AB0C",
"B  c #3BAB0D",
"V  c #2DB409",
"C  c #2EBB0B",
"Z  c #34B30C",
"A  c #3CB20E",
"S  c #33B80B",
"D  c #3DB90D",
"F  c #3EA210",
"G  c #40910F",
"H  c #419B0F",
"J  c #448413",
"K  c #4E8215",
"L  c #4F8C14",
"P  c #439411",
"I  c #489212",
"U  c #439C10",
"Y  c #4C9C13",
"T  c #549B16",
"R  c #41A40F",
"E  c #41AB0F",
"W  c #42B30F",
"Q  c #44BA0F",
"!  c #44A410",
"~  c #4AA511",
"^  c #45AB10",
"/  c #4BAB11",
"(  c #53A613",
")  c #5BA717",
"_  c #52AC13",
"`  c #59AD16",
"'  c #45B310",
"]  c #4BB212",
"[  c #46BC10",
"{  c #4BBA12",
"}  c #53B313",
"|  c #5BB316",
" . c #54BB13",
".. c #5BBC15",
"X. c #6BA21A",
"o. c #60B417",
"O. c #55C114",
"+. c #5AC116",
"@. c #55CC13",
"#. c #63C618",
"$. c #6DC219",
"%. c #67C818",
/* pixels */
" .! t N 0 f n m i & u B / s E B u i B m y i N s R ( B m n n  .~ m r < y ! / B H . , z u < y m c e t ",
"A n z 5 d E s # u y i v e k 2 B E e 8 s R y B M y s a R B m m e r 2 s R M F u H T y s M a # r i * & ",
"E x ; t W M q > B / B i 1 , * d ~ r c N M p a M < m R m i q N j O e R 1 N m y u { / d ] B < r 1 s y ",
"! _ m s y ! d & } ] y M M < i t p < n c t = r B t v s r ' / ' M r N B , B R N c B M y  .v i u , E R ",
"c M M < c { } a ] ' t d d i M i 1 B E 9 d W ' ^ < < s y _ %.E ! O.N 2 < i R Z R G i e ~ < M p , D m ",
"k i a N Z ! Y m B d / ! u v v v 1 W _ m m $./ e k B M E m M a i ..( < u i s B s K a m / n B ~ c k v ",
"s B n @.] d u E B m ! B m s n m 8 m ~ i r / / & 2 n { A < 5 B Z u ~ ../ A O.( 9 m R a E m 1 W d i R ",
"/ 1 , M ~ M v ~ d m i N n y d d / M s + i / ! i M M / s i M }  .2 y ( ~ m W E s m M 1 u E 2 e ~ Q E ",
"N 9 u p s d d v m M ' / t $ U ^ { t 2 v m / d r M ~ ~ R D { ~ s b s d s r < M e y t   , .. .H / c u ",
"c ~  .s M M < n W ^ B M d ! ! B ~ i z m e u u , t p d ' ^ E r # 2 u ] i # < a t c r $ s ( _ _ R r < ",
"s ( _ m s d y M M B u u B B s [ ] y * s N # m t i N v y U d < + & v m s y t s R M e r W B v < H N 2 ",
"m M m m m m a 6 s r r t Z 1 d ^ i s y  .E , n M c  .E O s t , d s r m M w ( #.v r N u m M r v X.! c ",
"B 1 e p m V M X M e * R M * m i W | B B 9 < M R u i p y v 1 & ! E u 1 k n o. .a e < m m % s ..] M v ",
"^ s d s M A ~ U H H r i p s u e E { N i s u M o.e < ! ( s t U / W E y   n W z / M t N d m i R W & y ",
"t / _ s v u 0 m s y < # c ] e p y z N R R z e / 5 y ` s B / ^ [ A s ~ i y E B M m M y s W M r / i s ",
"R m E r v 5 i m m m u { { B * s B y u ~ s < t m r y } u ^ } v 2 p H v Q M 9 _ k c ~ R p * d i N v , ",
"r ' E r D { E m B M e ^ v 2 1 ~ M * < c E y i ] 5 r D u y m > y I R v ] | y 1 v * u ^ u M u < i i + ",
"# s d c Z ] E M M & u u u e i o.M & c 1 A M 2 / q i ~ 9 s Q 1 d m 2 R R / ~ O s ~ 1 1 i _ v l M m E ",
"B $ 5 E M p M m t 2  .p v v i { c < M y G / r R M u R m ' m < s v N ( 2 m N , ! } s i B t u ] m v / ",
"! i 2 ..} ' / E m ~ / i t r s i u a v N G u 1 M N r E ' n * s M u } | < M B u _ ~ M s v > & ` d u t ",
"M  .' ! E ^ ( / m Y u x # u ' * < E M B A n < 2 b u U ' Z i / i , y g M m B N k B M t r u , u R v j ",
"d ( ! t $ a | Z u ! < N M ^ { r p +.W 5 M / 5 # , v v < t M ^ < # m t e v m v - k g u , s ' m ^ } M ",
"s d v @ e M E s e m 2 c Y U m A  .] E e s } B s i + u a 5 N A ^ A B m z / ^ d * & ! p * M { ] ^ ! s ",
"i 2 ^ s i ^ n B y 3 i u y . t _ } R s z , E E R | i N ! s v , s / B A n ^ B ^ ` M s E k < M } / i < ",
"m / ( ! , y / ' E m a t 2 u i ( p P d * O y a e i ..{ W / s 3 s a 5 n 1 a B b ^ ( ~ V > = M .._ y 2 ",
"M / ! m , h ! d ' _ 2 u e N m i m M v i y p B e # A m z / ~ ! ^ s u m i i s t i M ' &   s B d ` F 5 ",
"s M M M < - z m M ~ < Z ' m 2 2 ' B N b a U l 2 r e y = u v E n y Y } t $ t d ~  .M e s A N 1 d ] s ",
"y r v m i * ! ! m ' / u m m p v M s ^ s u v j ' ^ e d ~ i 1 { A - y ! i t u t B } s i | Q n < s / a ",
"B & e 2 s B ' d i b A s $ s D N M 2 z m u k N | m 2 d _ } E H s < & s /  .B 2 m } / y m , 2 R N N M ",
"A u s p m ' ' ! B 1 y R t v Z t U ! r t M s q Y t k t a } ( 5 t / 2 z / N z m ~ ^ ` s r & M ` < # B ",
"y N m d m u m _ ^ 2 9 d v y s & i _ ! 9 n ^ U m / E p i C { ] v y & u ..z , m c t ^ i z m R E = * M ",
"i 1 t r r i 5 p a & N E m m d ! t M ..A t Z B m E / R m n B } Q , 4 M ~ p i A m 2 > O B { * < N m s ",
"D , < t e N u a y * i B s i / { c y R N * 5 M m y y ' ! y y u u B S N M m m M ~ t # t E Z B u B U B ",
") y j B c k M m m ' 2 k R g R j 2 s i R * y ] _ y # m E d u u a ..1 l ' M ! ! p y d / s u } s r d / ",
"U a g N p u ^ # m ( m k s J d z u F d d M A / ` i < * B B i v ! s i 2 u M y y n Q ! < s / s u y a M ",
"N ^ s , y e N d 9 < M u 2 p m / / m y i v r a M ^ i c R t m B i B m 3 u i t M n M } r 2 v ; 2 ! J g ",
"B  .2 # s p d s # j ! ~ v c M m d d 2 N c * k N o.v m F < ~ i t v # B u y } W 2 m ^ m M <   z D i U ",
"v } y v ^ m 2 j v v ! U 1 i s i 5 s s R B B v B R M _ B n B 5 t u & ^ R 5 p s s } ^ 8 ! F * i / m u ",
"s M ^ W s 8 k 2 / _ / 1 : x v d m M M y d B ( d Z R m v m 2 s _ B s d M M M , t ` ^ % i R a y ^ R r ",
"..y A Z a I 1 % U | } z v # u m ' ~ M 2 M 1 M M v j ; & y a i M a d E } ' B r i A u m ' s s d W  .N ",
"] y ~ u B E 5 ] E M M < d H m 1 m d p B V , , r y c 1 i a ~ u < s m W B ~ d M s / N y m z S | m 2 d ",
"s i R i B M R +./ c r d M  .W u H E u a 2 < e n N s < 2 < u c y M N , c / R p y | ~ t b z < M B r M ",
"r B ] B s d i r n 2 ^ | { Q ] ..s s i s m v u t ! a i 2 ; B i y s r % B B Z m p e u z u p < # M #.W ",
"s R ~ R i i s $ O u } M L / M  .; t M N s r k s E m e m v  .y m q $ ' N 5 s < e & 2 N u U R % 5 } M ",
"E / ~ / E e E _ 0 m u r T 9 a e < B i s y t < u N v i R g / 1 3 ^ m R R 1 e & 5 q * t ^ ^ o K V M M ",
"y M H E +.u y  .i t t v n i p 5 B i t d ( R y u s R s M v N s 8 m W U ! W N E s a 1 m { B a ! { v M ",
"u s i v ( s s m # e y s v n , d / i c c ~ / q o M m B W A B y m z y ~ E / B R s B z N m ~ ] s s i d ",
"Q E , t 5 s { t t W Q a w i O r e d c 2 u m H 7 A B p R ..B # B z # s W B m v s M m % y ] / i F i B ",
"M ..r < N B ! 9 c 2 { t X M t m < e a M r < W 2 < / M e M s ; * 8 m v M m ' c s } R t m / 2 u ! u x ",
"H M W c i M y / B O t E v n _ ' u p { E B , i M M ..W i & y i s E E i e p ~ i y ! d A b M e 1 c t * "
};
