/* XPM */
static char *result[] = {
/* columns rows colors chars-per-pixel */
"50 50 239 2 ",
"   c #000100",
".  c #090305",
"X  c #030C01",
"o  c #170807",
"O  c #041201",
"+  c #041B06",
"@  c #031D06",
"#  c #19190E",
"$  c #2B0502",
"%  c #2A160D",
"&  c #261A15",
"*  c #082606",
"=  c #17270A",
"-  c #0A3809",
";  c #163907",
":  c #053E12",
">  c #193210",
",  c #2B300E",
"<  c #3A2116",
"1  c #213029",
"2  c #4C140A",
"3  c #531A15",
"4  c #5B2A0C",
"5  c #482812",
"6  c #6B2E0F",
"7  c #692919",
"8  c #5C1E21",
"9  c #4E2C28",
"0  c #5A332D",
"q  c #68372A",
"w  c #77362F",
"e  c #09470A",
"r  c #164707",
"t  c #045909",
"y  c #1B5908",
"u  c #074B17",
"i  c #144815",
"p  c #085619",
"a  c #135714",
"s  c #225908",
"d  c #2C4D16",
"f  c #1A6A07",
"g  c #007804",
"h  c #11790A",
"j  c #0C631E",
"k  c #086B1F",
"l  c #13671B",
"z  c #2B7B0B",
"x  c #31710F",
"c  c #387614",
"v  c #016E26",
"b  c #086C2D",
"n  c #077427",
"m  c #137B27",
"M  c #107C2A",
"N  c #32602A",
"B  c #456D10",
"V  c #50562A",
"C  c #6A4A2C",
"Z  c #7E4725",
"A  c #003E6D",
"S  c #07526F",
"D  c #414245",
"F  c #6E6957",
"G  c #89331D",
"H  c #9D3B22",
"J  c #8E5328",
"K  c #90562F",
"L  c #AF5E34",
"P  c #947534",
"I  c #A2602E",
"U  c #885847",
"Y  c #8E574D",
"T  c #98664A",
"R  c #8E7151",
"E  c #A26E48",
"W  c #A77851",
"Q  c #A97D60",
"!  c #028400",
"~  c #088801",
"^  c #0C8B02",
"/  c #148405",
"(  c #1D8707",
")  c #148C04",
"_  c #1B8D06",
"`  c #0D9202",
"'  c #0A9A02",
"]  c #149404",
"[  c #1C9406",
"{  c #149A04",
"}  c #1C9B06",
"|  c #16841A",
" . c #218E07",
".. c #27840A",
"X. c #238D08",
"o. c #2D8D0B",
"O. c #358D0D",
"+. c #3A890E",
"@. c #229407",
"#. c #229C07",
"$. c #259408",
"%. c #2B940A",
"&. c #259B08",
"*. c #2C9C0A",
"=. c #32950B",
"-. c #3B950E",
";. c #339C0C",
":. c #3B9D0E",
">. c #329315",
",. c #06A101",
"<. c #18A306",
"1. c #1CA206",
"2. c #22A407",
"3. c #21A907",
"4. c #26A309",
"5. c #2CA30A",
"6. c #27A908",
"7. c #2CAB0A",
"8. c #34A30C",
"9. c #3BA40E",
"0. c #34AB0C",
"q. c #3BAB0D",
"w. c #2DB509",
"e. c #34B30B",
"r. c #3CB20E",
"t. c #3BB80D",
"y. c #3EA210",
"u. c #04892F",
"i. c #11832D",
"p. c #158929",
"a. c #18992D",
"s. c #118C32",
"d. c #139634",
"f. c #378C22",
"g. c #399C28",
"h. c #2B9130",
"j. c #09A031",
"k. c #3FA32A",
"l. c #38AA31",
"z. c #40910F",
"x. c #419B0F",
"c. c #498514",
"v. c #588312",
"b. c #439D10",
"n. c #4A9912",
"m. c #579C19",
"M. c #41A40F",
"N. c #4CA608",
"B. c #41AB0F",
"V. c #42B30F",
"C. c #44B90F",
"Z. c #44A310",
"A. c #4AA511",
"S. c #45AB10",
"D. c #4BAB11",
"F. c #53A613",
"G. c #52AC13",
"H. c #5AAC16",
"J. c #45B310",
"K. c #4BB212",
"L. c #47BC10",
"P. c #4BBA12",
"I. c #53B313",
"U. c #5CB416",
"Y. c #54BA13",
"T. c #5CBC15",
"R. c #6BA21A",
"E. c #5B8728",
"W. c #6F8D2C",
"Q. c #45A628",
"!. c #45AC2B",
"~. c #4AB22C",
"^. c #4EBD30",
"/. c #6FB039",
"(. c #35C634",
"). c #59C315",
"_. c #68C518",
"`. c #4CCB31",
"'. c #679274",
"]. c #898B0E",
"[. c #B69E0C",
"{. c #B28B35",
"}. c #9CA430",
"|. c #BFA12A",
" X c #CEB419",
".X c #E38C37",
"XX c #CBAE30",
"oX c #9AD01A",
"OX c #C7CB01",
"+X c #D7C819",
"@X c #E9DB06",
"#X c #F2DC13",
"$X c #C7E408",
"%X c #D7F907",
"&X c #F0EB08",
"*X c #F6F301",
"=X c #FFFE01",
"-X c #D5C029",
";X c #EBC836",
":X c #FFFB38",
">X c #97835C",
",X c #BE864A",
"<X c #BA8B58",
"1X c #B28C67",
"2X c #C68E55",
"3X c #CE9150",
"4X c #D8BD4F",
"5X c #D4A859",
"6X c #EFB858",
"7X c #EBAE63",
"8X c #FFD46A",
"9X c #154BB6",
"0X c #3257A6",
"qX c #6B7391",
"wX c #6B7CA6",
"eX c #13B1E8",
"rX c #5AEBFD",
"tX c #9EB28E",
"yX c #BFBB9E",
"uX c #9D9BA2",
"iX c #B0ACAB",
"pX c #D4B28C",
"aX c #D6B2A3",
"sX c #95DDB0",
"dX c #A0E8B6",
"fX c #DEC392",
"gX c #E4C793",
"hX c #F3E59B",
"jX c #DECAA6",
"kX c #FFDEA9",
"lX c #E6C5B5",
"zX c #F7EDB4",
"xX c #FDE6B9",
"cX c #FFEDC8",
"vX c #FFF8C8",
"bX c #FEFCDE",
"nX c #E6E7EA",
"mX c #FEFDE8",
"MX c #FFFEFF",
/* pixels */
"Y.Z.$.r.z c.7.8.8.^ &.q.D.-.B.q.4.5.9.8.$.;.q.;.M.F.9.0.6.6.I.D.8.&.[ $.Z.G.9.b...] 4.&.[ $.8.4.@.$.",
"r.7.2. .:.B.*.^ $.=.*.5.@.<.} q.9.@.X.;.M.$.q.8.$.:.:.M.9.0.8.$.} } :.9.9.9.&.9.m.$.;.x.-.^ &.*._ ) ",
"B.3.` $.V.9.=.' q.S.S.*.{ ] ) x.A.@.4.0.9.=.=.:.[ 8.M.8.*.O.q.<.!  .9.} q.8.%.&.Y.S.9.D.q.@.#.[ *.%.",
"Z.G.8.;.%.Z.:._ Y.K.$.9.9.@.*.$.;.} 7.4.%. .&.B.&.*.8.$.V.D.V.9.5.7.q.] q.9.0.*.q.q.$.Y.4.5.&.] B.A.",
"4.9.9.[ &.P.I.-.K.J.@.:.9.%.9.*.{ q.B.%.:.K.J.B.[ @.;.%.G._.B.M.).e.} [ %.q.0.Z.z.%.@.D.[ M.%.] r.8.",
"<.*.-.e.t.9.n.8.q.:.S.Z.%.4.5.5.[ V.D.8.;._.K.[ } 0.9.B.8.9.:.;.T.A.[ $.*.:.q.8.c.:.8.D.7.q.A.5.1.5.",
";.q.7.).K.:.*.B.q.8.Z.q.0.%.0.8. .8.A.#.#.G.S.) } 7.P.r.[  .9.e.%.A.U.D.r.).F.X.;.M.;.M.8.] r.:.*.M.",
"A.} ] 9.A.9.6.A.:.8.=.e.7.%.:.:.S.M.-.^ ;.B.Z.;.9.9.D.;.*.9.I.Y.} &.G.A.8.J.q.:.9.9.} #.B.} @.A.).B.",
"0.o.&.=.;.:.;.4.8.M.K.B.$./ x.S.Y.$.} w.7.D.:.} q.A.A.9.V.P.A.;.1.y.:.*.*.[ y.@.%.$.g ] T.I.n.S.1.#.",
"4.B.I.;.q.:.[ 0.V.B.q.M.:.y.S.q.A.5.4.R w 5 u.p y !.k.Q.Q.i.| ^ } 5.J.*.^ [ -.$.5.&.^ ;.D.I.G.q.} [ ",
"-.F.I.9.;.:.o.9.9.q.&.&.q.q.;.L.W.W.}.+X X].j.u i `.Q.Q.k.g.| h h *.8.;.%.X.:.y.9.@.#.B.B.*.@.n.0.} ",
"5.q.:.5.8.8.-...;.&.#.@.e.[ :.F.P 2X6X=X=X%Xl.p i !.Q.Q.k.~.g.b i.| *.q.>.G.T.0.&.0.&.0.:.2.6.R.M.4.",
"q.{ @.%.8.w.9.c 9.@._ M.9._ E.T =X XY E 2X7X6X}.| * f.!.k.k.!.~.s.p ; } 0.T.Y.;.[ @.8.8._ ;.T.K.9.5.",
"V.;.:.:.9.r.S.n.:.x.} *.=.E.}. X+XXX<XU XX;X3X/.p.O f.^.!.~.Q.h.M n j t $.J.#.D.9.@.8.:.8.%.M.B._ $.",
"$.A.G.;.5.$.+.8.:.%.[ ` 5.T +X=XU <X6XT @X&XT /.;.* f.!.Q.Q.h.v m i.i.e y B.9.9.8.9.*.;.B.q.#.S.%.-.",
"M.8.V.@.5.@.%.7.8.8.&.K.L.8  X=X8XJ 4 aX:X*XU #X%Xl.a - - * a i.m M i.- x $.G.2.2.A.M.=._ :.*.0.7.] ",
"} J.V.&.t.P.V.8.q.y.$.S.8.x ].XX{.T R aX4X[.Y #X%Xa.: - p p j i.i.M M b s f { 5.) 4.B.&.9.&.[ ;.;.~ ",
"^ ;.:.#.e.K.M.9.9.` %.&.&.#.E.W 2 1XxXgXQ K R #X$Xb : p s.s.i.M M M M d.b ; ! ;.A.[ } %.G.5.1.q.8.B.",
"q./ $.B.9.;.B.;.$.} Y.=.5.5.;.F.X R xXmXlX5X*X|.W 2Xh.k * i.m - e j s.i.l r ] A.G.8.*.0.&.&.K.8.*.D.",
"S.%.} Y.I.D.S.B.0.A.D.*.@.#.;.4.X C 2XF iXhX=X|.Y L d p t t e - O - l s.p * &.G.S.q.=.8.] ) G.9.&.$.",
"Z.P.J.Z.M.S.F.D.:.n.&.3.^ *.B.f # 5 4   uXvX*XXXU 7 = p d.i > e   X - s.u O 0.<.q.9.$.#.#.] $.M.5.<.",
":.F.Z.$./ -.U.e.#.y.[ 0.9.Z.s & pXqX0XnXbXhXW 5X3X6 <XjXzXmXtX- . + a r + X 4.` #.:.&.] =.S.8.S.I.q.",
"=.:.4.^ $.9.S.;.@.8.} 5.A.b.r & hXwX9XMXmXfXw -X Xo 5XbXbXxXR O y r * m i X :. .) M.%.[ 9.P.K.S.M.=.",
"5.} q.:.5.S.6.q.%.[ *.#.%...r = gXqX0XMXmXpX3 @XOXX iXmXzX,X4 X A.z . d.p X B.H.9.:.S.1.} 9.I.K.*.[ ",
"8.S.F.Z.] $.D.D.q.8.=.$.} 4.%.B o Q xXcXmXjX7 @XOX  eXrX.X% X   -.y X a -   6.M.H.S.e.,. .y.T.G.$.#.",
"9.G.Z.8.] ,.S.:.P.D.@.*.@.0.8.%.y d >XkXvXpX8 @XOX  A S 4 C P ].=...r * * y #.*.9.B.] g =.r.:.G.9.$.",
";.9.M.9.[ ` 4.8.8.A.@.e.B.8.} } K.y X pXgX1X3 @XOX        <X:X%XN.n.U.O e %.-.A.Y.9.X.-.r.e.} 9.D.=.",
"%.#.4.8.*.) Z.Z.8.K.D.&.8.9.;.4.Z.;.+.o > ; . 5X4X. n s.* . x q.` o.M.X. .@.@.q.I.=.&.U.L.7.[ %.D.:.",
"0.] $.#.;.q.J.-.*.6.V.;./ ;.V.0.y.h r e p p u V Z 3 > v l O r -.[ ] ;.V.K.q.} 0.I.G.%.8.] } M.0.0.9.",
"r.&.=.%.8.J.J.S.q.{ %.9.@.7.e.@.-.; = d.s.s.j.@ o I $ + j.* - $.A.1.4.A.0.2.;.A.B.G.;.#.) 9.U.[ ^ q.",
"%.q.8.:.8.&.8.G.r.} O.:.5.%.;.h + [.=Xn u.v   : g g X @ j.@ r 8.%.) *.U.6.] 9.4.[ D.*.2.8.b.S._ _ 9.",
"*.{ @.#.#.=.[ =.-.) 8.q.8.9.;.+.  v.oXV V d   '.dXsX1 X N < , s /  .8.A.*.;.q.5.#.' ~ q.L._ [ 0.8.:.",
"t.] } @.[ 0.*.-.&._ ;.q.*.*.D.Z.X u b G H 7   iXMXMXD   8 8 <   O.e.0.9.8.8.b.A.$.^ $.B.e.q.&.q.y.q.",
"H.o.1.q.4.<.9.8.8.J.} 1.M.b.9.)   c `.l.~.Q.. & 0 9 o . 3 h.b   n.{ <.J.q.S.Z.%.&.:.D.=.&.I.=.#.-.S.",
"b.-.:.0.o.*.q.` 8.A.8.1.*.c.-.&.r i c `.(.i.  $ 2 2 . # E.b e s O.*.1.*.9.%.$.8.L.Z.#.8.D.;.&.%.-.9.",
"0.S.*._ =.$.0.:.O.[ 9.&.} =.8.S.A.y   Q.h.u   0 I J o - `.= r *.q.8.[ &.=.$.9.6.9.G.#.[ 7.` } Z.c.y.",
"q.Y.[ ^ =.=.:.=.^ } Z.Z.5.*.0.;.;.:.( X       yXmXkX9 X X x X.&.5.` q.#.%.K.r.} 8.S.8.9.[ g 2.t.*.n.",
"5.I.%.5.S.0.} <.7.4.Z.Z.} *.8.*._ z r 2 % o % F '.R & X f 8. .%.*.) S.Z._ -.9.;.I.S.X.Z.Z._ *.K.8.&.",
":.9.r.J.-.o.<.} S.G.D.} ' 3.5.:.8.; o J q 9 q . .   X r %.} ;.G.q.;.;.:.y.8.] X.G.D._ *.M.:.%.B.B.#.",
"U.*.r.e.:.z.{ ( n.U.K.2.5.^ &.8.S.; o J J J 0 o .   t / %.-.*.9.-.;.S.Y.K.q.#.5.r.&.;.V.;.-.9.B.I.0.",
"K.$.A.&.q.B. .K.B.9.:.[ x.x.5.} :.x ; 5 5 < % ; r e ) *.:.A.&.@.=.8.r.r.A.:.9.*.K.0.$.8.4.e.U.8.} :.",
":.*.M.;.q.M.9.).S.2.2.:.9.Y.V.&.M.B.@.X X X X  .q.-.[ } _ &.4.%.q.0.] *.S.A.=.%.H.A.$.6.4.} q.q.#.9.",
"#.q.K.q.;.:.*.#.7.} J.U.L.L.K.T.*.;.5.*.8.5.*.$.M.:.5.} ` q.;.%.:.#._ 8.S.e.8.=.$.&.2.#.%.@.^ :._.r.",
"-.M.A.9.*.*.:./ ~ $.I.:.c.A.q.I.]  .9.8.;.} <.;.B.8.@.8.5.I.$.5.O./ P.0.X.*.[ $.) } 0.&.b.9.( @.I.9.",
"q.B.A.A.B.@.B.F.O.;.@.#.m.o.;.$.[ 9.*.:.=.$.[ *.0.5.*.M.:.S.@.[ y.;.S.9.} [ ) X.O._ $.q.S.B v.w.9.9.",
"*.9.M.B.).&.%.Y.*.$.&.5.0.4.=. .q.5.&.:.F.M.%.*.;.M.;.9.5.0.;.$.0.J.Z.b.J.0.S.*.-.] 8.P.q.-.Z.P.5.9.",
"*.-.*.5.D.;.;.8.^ @.%.-.7.7.[ ;.D.%.4.2.Z.D.+.c 9.:.q.C.r.q.%.8.1.$.A.S.D.q.y.;.q.2.0.8.S.D.;.;.5.:.",
"t.B.] $.@.-.K.$.@.V.P.;.+.*.~ @.@.:.5.} &.8.x...r.q.=.9.T.B.^ 0.&.^ :.V.q.8.5.8.9.8._ o.I.I.*.y.%.q.",
"q.T.&.{ 0.q.M.o.4.#.L.$.c 9.$.8.[ @.:.9.@.{ B.} [ D.9.@.9.-.` [ $.8.7.:.8.K.4.;.I.Z.$.8.D.} #.B.&.2.",
":.9.V.4.=.9.%.D.q.! $.M.6.5.G.K.&.=.P.B.q.[ &.M.9.T.C.*.) $.%.;.q.B.*.$.=.A.%.$.M.9.r.6.q.@.] 5.$._ "
};
