/* XPM */
static char *result[] = {
/* columns rows colors chars-per-pixel */
"50 50 237 2 ",
"   c #000100",
".  c #080306",
"X  c #040C01",
"o  c #170806",
"O  c #031302",
"+  c #041C05",
"@  c #141B09",
"#  c #1E1D12",
"$  c #290F0A",
"%  c #261A14",
"&  c #072707",
"*  c #182D08",
"=  c #093709",
"-  c #133806",
";  c #053E12",
":  c #352F12",
">  c #070822",
",  c #231921",
"<  c #1F3027",
"1  c #3D363B",
"2  c #531A15",
"3  c #5B2A0C",
"4  c #482812",
"5  c #4E3412",
"6  c #6B2E0F",
"7  c #672B17",
"8  c #4F302C",
"9  c #69382A",
"0  c #793730",
"q  c #044705",
"w  c #0D440D",
"e  c #164608",
"r  c #05560B",
"t  c #185607",
"y  c #074C18",
"u  c #144815",
"i  c #085619",
"p  c #135715",
"a  c #2A5410",
"s  c #176808",
"d  c #007804",
"f  c #10750F",
"g  c #0C631E",
"h  c #086B1F",
"j  c #11691E",
"k  c #276C09",
"l  c #287A0A",
"z  c #367414",
"x  c #387614",
"c  c #055E21",
"v  c #006D25",
"b  c #0A6E2D",
"n  c #077528",
"m  c #137B27",
"M  c #107C2A",
"N  c #497515",
"B  c #51582A",
"V  c #6A4A2C",
"C  c #7E4725",
"Z  c #5E7B2A",
"A  c #003E6D",
"S  c #3A4047",
"D  c #07526F",
"F  c #6E6957",
"G  c #9D3822",
"H  c #A1551C",
"J  c #8E5227",
"K  c #8E542F",
"L  c #947534",
"P  c #A2602E",
"I  c #885847",
"U  c #8E574D",
"Y  c #98664A",
"T  c #8E7151",
"R  c #A26E48",
"E  c #A67750",
"W  c #A97D60",
"Q  c #028400",
"!  c #088801",
"~  c #0C8B02",
"^  c #148304",
"/  c #148C04",
"(  c #1C8907",
")  c #1B8D06",
"_  c #0E9203",
"`  c #0A9A02",
"'  c #149404",
"]  c #1C9406",
"[  c #159A04",
"{  c #1C9B06",
"}  c #198B1B",
"|  c #218E07",
" . c #27830A",
".. c #248D08",
"X. c #2D8D0B",
"o. c #348D0D",
"O. c #3A880E",
"+. c #229407",
"@. c #229C07",
"#. c #259408",
"$. c #2B940A",
"%. c #259B08",
"&. c #2C9B0A",
"*. c #32950B",
"=. c #3C950E",
"-. c #339C0C",
";. c #3B9D0E",
":. c #329215",
">. c #06A101",
",. c #18A305",
"<. c #1CA206",
"1. c #22A407",
"2. c #21A907",
"3. c #26A308",
"4. c #2CA30A",
"5. c #29A908",
"6. c #2CAB0A",
"7. c #34A30C",
"8. c #3BA30E",
"9. c #34AB0C",
"0. c #3BAB0D",
"q. c #2DB509",
"w. c #34B30B",
"e. c #3CB20E",
"r. c #3EB80E",
"t. c #3EA210",
"y. c #11832D",
"u. c #158929",
"i. c #03912F",
"p. c #18992D",
"a. c #118C32",
"s. c #139634",
"d. c #378C22",
"f. c #399C28",
"g. c #2E9330",
"h. c #1FAE37",
"j. c #3FA32A",
"k. c #38AA31",
"l. c #41910F",
"z. c #419B0F",
"x. c #498514",
"c. c #558F13",
"v. c #479314",
"b. c #449D10",
"n. c #4C9C12",
"m. c #41A40F",
"M. c #41AB0F",
"N. c #42B30F",
"B. c #46B70D",
"V. c #44A310",
"C. c #4AA511",
"Z. c #45AB10",
"A. c #4BAB11",
"S. c #53A613",
"D. c #53AC14",
"F. c #5AAC16",
"G. c #45B310",
"H. c #4BB212",
"J. c #46BC10",
"K. c #4CBA12",
"L. c #53B313",
"P. c #5BB315",
"I. c #54BA13",
"U. c #5BBC15",
"Y. c #6BA21A",
"T. c #77922F",
"R. c #44A829",
"E. c #47B42E",
"W. c #4AB32C",
"Q. c #52B82B",
"!. c #4EBD30",
"~. c #71AD35",
"^. c #35C634",
"/. c #59C315",
"(. c #68C518",
"). c #4ECD32",
"_. c #699070",
"`. c #8C8B0E",
"'. c #B59D0B",
"]. c #9E9C2C",
"[. c #B28B35",
"{. c #9CB334",
"}. c #BFA12A",
"|. c #CEB419",
" X c #E38C37",
".X c #CBAE30",
"XX c #9AD01A",
"oX c #C7CB01",
"OX c #D7C819",
"+X c #E9DB06",
"@X c #F2DC13",
"#X c #C7E408",
"$X c #D7F907",
"%X c #F0EB08",
"&X c #F6F301",
"*X c #FFFE01",
"=X c #D5C029",
"-X c #EBC836",
";X c #FFFB38",
":X c #97835C",
">X c #BE864A",
",X c #BA8B58",
"<X c #90846F",
"1X c #B28C67",
"2X c #C68E55",
"3X c #CE9150",
"4X c #D8BD4F",
"5X c #D4A859",
"6X c #EFB858",
"7X c #EBAE63",
"8X c #FFD46A",
"9X c #265EA5",
"0X c #3257A6",
"qX c #6B7391",
"wX c #6B7CA6",
"eX c #13B1E8",
"rX c #5AEBFD",
"tX c #9EB28E",
"yX c #9D9BA2",
"uX c #AFADAD",
"iX c #D4B28C",
"pX c #D6B2A3",
"aX c #9DE0AC",
"sX c #DEC392",
"dX c #F3E59B",
"fX c #DECAA6",
"gX c #FFDFAA",
"hX c #E6C5B5",
"jX c #F7EDB4",
"kX c #FDE6B9",
"lX c #FFEDC8",
"zX c #FFF8C8",
"xX c #FEFCDE",
"cX c #E6E7EA",
"vX c #FEFDE8",
"bX c #FFFFF2",
"nX c #FFFEFF",
/* pixels */
"I.V.%.w.l x.6.7.&./ %.0.A.;.M.0.3.4.8.7.$.&.9.-.V.S.8.7.5.5.L.A.7.%.] $.m.D.8.z. .' 3.&.) *.7.3.+.#.",
"e.6.@.| z.Z.4.~ &.$.&.4.{ { { 8.0.| ..-.m.$.0.8.#.;.;.V.0.9.7.+.{ { ;.8.8.8.&.8.n.*.-.;.-.! %.&.) / ",
"M.2._ #.B.8.o.` 0.A.V.4.[ [ ( ;.C.+.5.9.8.*.*.8.] 7.m.7.&.o.9.,.Q +.8.{ 9.8.#.%.K.A.8.A.0.] { ] -.$.",
"V.D.7.-.$.m.;.) K.H.#.8.8.] &.#.-.] 6.3.#.| %.0.@.&.7.#.G.H.Z.8.%.9.0.' 0.8.7.4.0.0.$.K.5.&.&.' M.m.",
"3.8.8.] %.K.D.*.H.G.#.;.;.&.8.&.[ 0.Z.$.;.H.G.Z.] +.7.$.D.(.Z.V./.9.{ ] &.8.w.m.l.&.+.A.] 8.*.' e.7.",
",.-.-.w.w.Z.V.8.0.;.A.b.&.5.&.4.] N.A.;.-.(.A.] <.9.8.Z.7.8.;.&.U.C.+.@.&.;.0.-.N ;.-.A.6.0.C.3.<.4.",
"-.0.6./.H.;.&.Z.0.7.V.0.7.&.9.7.| 7.C.%.@.D.Z./ ] 6.G.e.] | 8.w.%.C.P.A.e./.S.$.7.m.-.Z.7.[ N.8.&.m.",
"C.{ ' ;.C.8.4.V.8.-.&.9.6.$.;.;.Z.8.-.~ &.A.C.&.8.8.A.-.&.8.L.I.{ $.D.C.7.N.8.-.8.8.[ %.M.{ | C./.M.",
"9.$.%.*.-.;.-.3.-.m.H.M.%.^ b.Z.K.#.@.7.} m V.R.R.E.t p y.5 V T 5.;.;.$.%.] ;.+.$.#.d ' I.L.z.A.<.@.",
"3.m.L.-.8.;.] w.N.M.e.m.=.t.C.9.C.#.} } u.g.R.f.R.!.w w s.`.|.=X{.~.T.$.~ ] z.#.3.@./ &.F.D.D.m.{ ] ",
"-.S.L.;.8.;.$.8.8.0.#.@.e.0.-.J.Z.m m b f.Q.j.R.R.E.w p E.$X*X*X6X2XR v.$...;.0.8.+.+.H.0.3.] b.9.{ ",
"7.0.7.7.4.-.=. .-.%.@.#.w.[ ;.C.- i u.Q.R.j.j.E.d.& } ~.6X7X3XL I |.*XT Z D.U.7.@.9.%.9.8.%.5.Y.V.3.",
"0.[ +.*.7.q.t.z 8.+.) m.8.) X.s g n y.g.j.W.R.!.d.O u.~.3X-X.XU ,X.XOX|.].Y.I.;.+.+.-.7.( -.U.H.8.3.",
"M.-.;.-.8.0.A.b.;.z.{ &.*.-.s w u.y.m v g.R.f.W.d.& :.~.R %X@XY 6X2XI *XOXY @.Z.8.+.7.8.7.-.m.M./ &.",
"$.C.F.-.4.#.O.7.;.*.] ~ &.H.s = M M m y.u * = = i k.$X@XY %X;XpX3 J 8X*X|.7 8.8.7.8.%.;.M.9.%.Z.-.-.",
"8.7.e.@.4.+.&.4.7.4.@.I.J.l p g M y.y.y.v u v = q s.$X@XU '.4XpXE Y >X=X`.a D.1.1.C.m.*.) ;.&.9.&.' ",
"@.G.M.%.r.H.0.7.8.8.+.0.5.- b s.M M M M y.a.a.p ; v #X@XE I W sXkX1X$ E T.*.' 6./ 3.M.$.8.&.] &.-.Q ",
"~ -.;.1.w.H.M.8.8.' $.&.%.w p y.a.g - = n y.& h g.>XY }.&X5XhXvXkXT . c.D.C.Q ;.C.] [ &.D.4.,.0.7.Z.",
"0.^ ..M.0.*.M.7.#.{ I.$.4.& p s.b = + - y i q r a P U }.*XdXuXF ,XV X 1.7.9.' m.L.;.&.9.%.&.K.7.&.A.",
"m.&.] I.I.H.C.M.7.A.A.-.%.X y a.= X   w - a s.i : 7 U .X&XzXyX. 3 3 @ f -.0.%.D.C.8.-.4._ / S.;.%.#.",
"0.I.Z.C.m.A.D.A.7.n.%.2.~ X & w p O   = tXvXjXsX1X6 2X5X[.dXxXcX0XqXiX# t 0.9.,.0.7.] @.%.' &.m.4.,.",
";.S.V.#.^ *.P.w.&.t.] 9.V.X ; j & a k O T gXxXzXiXo |.-X9 pXvXnX9XwXjX% e 7.4._ 1.;.$.[ &.G.4.A.L.0.",
"&.;.3.! +.8.M.7.#.7.{ %.C.X i p.  O.m.  5 3XjXvXyX  oX+X2 iXvXnX0XqXsX# a M.;.) / m.*.) 8.K.L.Z.V.*.",
"&.{ Z.7.-.Z.6.0...] &.3.*.  = p   k -.    %  XrXeX  oX+X2 fXxXlXjX:Xo  .8.8.Z.F.8.;.0.1.] 8.L.Z.&.] ",
"7.A.A.V.' %.A.Z.0.7.=.#.{ t & + e x =.`.L V 3 D A   oX+X7 pXzXgX:X: s [ *.Z.5.Z.S.Z.q.` | t.U.D.#.@.",
"8.A.C.7.' ` Z.;.B.A.] &.#.6.t O 7.;.B.$X;X,X        oX@X2 1XsXiXX t 8.&.&.-.] &.8.A.' d -.0.;.D.t.+.",
"-.8.8.;.] ~ 3.7.8.C.+.w.N.7.] / B.8.w.9.a . & a.n   4X5X  = * o l v.L.#./ #.;.C.I.8.| ;.w.9.] 8.A.-.",
"*.@.4.7.&./ V.V.7.H.A.@.7.8.$.4.m.-.0.;.= O j v u 2 K B y i y ; q k C.&.+.$.#.0.L.-.&.P.J.6.] &.A.;.",
"0./ +.{ -.0.G.*.&.5.N.-.^ -.B.6.;.+.5.7.- & s.& $ P o + s.a.a.s.* - *.N.L.0.{ 7.L.D.$.7.' { m.9.7.8.",
"e.&.*.$.7.J.G.C.9.] $.8.+.4.w.+.z.M.@.+.e O i.&   d d q X v i.n *X'.+ v.9.2.7.C.M.D.;.@./ 8.F.{ ~ 0.",
"$.9.7.;.4.&.7.D.M.{ o.;.4.*.&.) &.D.=.e w p B . < aXaX_.  a B B XXN   n.5.' 8.3.] Z.%.1.-.V.Z.] ] 8.",
"4.[ #.@.@.-.) -.-./ 9.0.7.7.;.C.+.8.n.  h g.G . S nXnXuX  6 G 0 b y X l.$.&.e.4.@.[ Q 0.J.) ] 7.7.-.",
"r.' ] #.] 9.%.*.$.) &.0.&.&.A.K.3.&.o.  c h.!.& > 9X9XS   d.!.f.).z   o.7.7.m.V.#.~ #.M.w.0.%.9.V.0.",
"F.X.,.0.4.<.8.7.8.N.{ @.m.z.m.,.{ $.X.t = j ).- . 1 S ,   m ^.).x u r Z.8.m.m.*.$.;.A.-.&.L.-.@.-.A.",
"b.=.;.0.*.@.0._ 7.C.9.<.-.x.;.3.&.8.;.-.e @ !.& o J H 3   c g.R.  t { &.8.$.%.6.J.m.+.-.A.-.#.$.;.8.",
"0.0.7./ :.] 0.;.o.] ;.3.{ *.7.Z.A.8.$.-.-.s X   : dXbXfX        *.7.] %.-.$.8.5.8.L.@.{ 6._ { V.N ;.",
"0.I.{ ~ *.-.-.=.! { b.V.4.3.7.7.;.;.{ 9.1.( t O % T <XF % o $ 4 e s e.@.*.H.0.{ 7.m.7.8.] d 2.N.&.V.",
"&.L.$.4.Z.7.{ ,.6.5.C.V.[ &.-.-.| -.-.8.0.8.6.e . .   . 8 8 9 J X & C.m.| *.;.-.P.M...m.8.( &.N.7.&.",
"-.8.0.G.=...<.{ A.D.Z.{ >.<.4.;.7.8.m.#.;.0.S.;.s     o 9 C J J o - ;.8.;.8.' #.L.A.) &.m.=.*.m.m.@.",
"U.&.e.w.=.l.[ ) b.P.L.2.4.! &.7.H.m.8.@.7.{ 8.8.%.q q * % 4 4 4 - k M.I.B.0.@.&.e.@.7.H.-.*.8.N.I.9.",
"N.$.C.@.0.Z.) H.M.8.;.] z.z.4.{ ;.;.$.0.6.' ' @.$.1.[ l X X X X *.7.e.0.V.;.8.-.A.9.$.7.2.w.P.7.{ ;.",
";.&.m.-.0.8.V./.A.@.1.;.8.I.e.&.V.Z.%.;.{ ] +.5.9.-.] { ) %.%.$.0.9.' 4.A.m.o.$.P.C.+.5.1.] 8.0.@.8.",
"%.0.H.0.&.;.&.%.5.{ 0.P.K.J.H.U.&.-.&.&.7.4.&.#.V.=.4.{ ' 9.&.$.-.@.( 7.M.w.9.*.| @.@.@.*.] ~ 8.(.e.",
"-.m.C.8.$.7.;.^ ! &.I.;.c.C.8.I._ +.8.7.-.@.,.-.Z.7.] -.7.I.&.4.o.^ H.9.#.&.] | ' @.9.&.b.V.( ) L.8.",
"M.Z.C.A.Z.] 0.D.o.-.@.@.n.X.-.#.] 8.-.;.*.#./ @.9.4.&.V.8.C.] ] V.-.Z.m.[ #.) #.o.) #.Z.Z.N x.q.8.8.",
"&.;.z.M./.$.$.I.&.+.@.&.6.&.*.| 0.3.%.;.S.V.$.$.&.V.-.8.4.0.-.+.9.N.m.b.B.7.0.&.=.' 7.K.0.=.V.K.4.8.",
"&.-.&.4.S.-.7.&.~ #.$.;.4.6.] ;.A.$.3.3.V.A.O.x.7.;.0.G.e.9.$.7.<.$.C.Z.A.0.8.;.9.3.9.7.C.H.-.-.&.;.",
"N.M.' #.#.-.H.#.#.N.B.=.=.&.Q ] +.8.4.{ %.7.b. .e.0.*.0.U.Z.~ 0.1.! ;.N.0.7.4.7.8.7.( $.H.A.-.;.&.0.",
"0.U.@.] 9.0.V.$.3.@.K.$.z 8.#.-.{ +.;.8.@.] e.@.+.H.8.+.8.-._ / ..7.4.8.7.G.3.-.L.V.#.7.Z.{ %.Z.%.2.",
";.8.N.3.$.8.$.A.7.! #.0.5.4.L.A.@.*.H.M.0.' &.8.;.I.B.&.^ $.&.-.N.M.&.| *.C.&.$.m.;.e.5.8.#.' 3.#.) "
};
