/* XPM */
static char *result[] = {
/* columns rows colors chars-per-pixel */
"50 50 160 2 ",
"   c #030801",
".  c #002100",
"X  c #0F3E05",
"o  c #1A2B1B",
"O  c #282D27",
"+  c #2D2D2D",
"@  c #353135",
"#  c #40243F",
"$  c #0E4303",
"%  c #014900",
"&  c #164706",
"*  c #1A4507",
"=  c #144C05",
"-  c #194B06",
";  c #005500",
":  c #005D00",
">  c #1F5707",
",  c #1C5E07",
"<  c #1F5508",
"1  c #234309",
"2  c #224B09",
"3  c #006200",
"4  c #006C00",
"5  c #116404",
"6  c #007B00",
"7  c #137014",
"8  c #21670D",
"9  c #26780D",
"0  c #2B7D0C",
"q  c #346C12",
"w  c #377111",
"e  c #3E7E11",
"r  c #2B5927",
"t  c #354C36",
"y  c #3A7528",
"u  c #497515",
"i  c #40701E",
"p  c #4C2D4C",
"a  c #523C4B",
"s  c #4E4E4C",
"d  c #5B5E59",
"f  c #756475",
"g  c #028301",
"h  c #0C8502",
"j  c #048A01",
"k  c #0C8B02",
"l  c #148304",
"z  c #1C8607",
"x  c #148C04",
"c  c #1B8D06",
"v  c #1F8E08",
"b  c #049301",
"n  c #0D9202",
"m  c #019D00",
"M  c #0D9B02",
"N  c #149304",
"B  c #1C9406",
"V  c #159A04",
"C  c #1C9B06",
"Z  c #1F9308",
"A  c #208707",
"S  c #218E07",
"D  c #24850B",
"F  c #2F810D",
"G  c #248D08",
"H  c #2C8E0A",
"J  c #34870D",
"K  c #348D0D",
"L  c #3F8E0F",
"P  c #229407",
"I  c #229C07",
"U  c #259408",
"Y  c #2B940A",
"T  c #259B08",
"R  c #2C9C0A",
"E  c #32950C",
"W  c #3A950E",
"Q  c #339C0C",
"!  c #3B9D0E",
"~  c #3F9C10",
"^  c #06A101",
"/  c #16A105",
"(  c #1CA206",
")  c #1DA907",
"_  c #00BA00",
"`  c #22A407",
"'  c #21A907",
"]  c #26A208",
"[  c #2CA30A",
"{  c #26A808",
"}  c #2CAB0A",
"|  c #34A30C",
" . c #3BA30E",
".. c #34AB0C",
"X. c #3CAB0D",
"o. c #2DB409",
"O. c #34B30B",
"+. c #3CB20E",
"@. c #33B80B",
"#. c #3DB90D",
"$. c #3EA210",
"%. c #40910F",
"&. c #419B0F",
"*. c #448413",
"=. c #4F8715",
"-. c #508217",
";. c #439411",
":. c #489212",
">. c #439D10",
",. c #4C9C13",
"<. c #549B16",
"1. c #41A40F",
"2. c #41AB0F",
"3. c #42B30F",
"4. c #44BA0F",
"5. c #44A410",
"6. c #4AA511",
"7. c #45AB10",
"8. c #4BAB11",
"9. c #53A613",
"0. c #5BA717",
"q. c #52AC13",
"w. c #59AD16",
"e. c #45B310",
"r. c #4BB212",
"t. c #46BC10",
"y. c #4BBA12",
"u. c #52B313",
"i. c #5BB315",
"p. c #54BB13",
"a. c #5BBC15",
"s. c #6BA21A",
"d. c #60B417",
"f. c #00F400",
"g. c #00FF00",
"h. c #1DFF1D",
"j. c #3DD43C",
"k. c #1FFF21",
"l. c #2EFF30",
"z. c #55C714",
"x. c #5AC116",
"c. c #63C618",
"v. c #6DC219",
"b. c #67C818",
"n. c #43B445",
"m. c #639566",
"M. c #4EEA4E",
"N. c #67FF68",
"B. c #75E67A",
"V. c #84CC83",
"C. c #94FF98",
"Z. c #A0FFA1",
"A. c #A9F7AA",
"S. c #A2FFA8",
"D. c #B4FFB4",
"F. c #BDFFBD",
"G. c #BEFFC3",
"H. c #E7FFE8",
"J. c #FBE7FA",
"K. c white",
/* pixels */
"p.5.U ..F *.} | Q k T X.8.Q 2.X.] [  .| R R | | 1.9. ...{ } u.6.| T P Y 5.9. .! F N ] T c Y | [ S T ",
"+.} ` S ! 2.| k U R [ [ P C C X. .P G Q 1.Y X. .U ! ! 1. .....P C C Q X. . .R ! ,.Y Q 1.! k T T c x ",
"2.' n U 4. .K M  .8.7.R V N x ! 6.B { .. .E Q ! B | 1.| R K X./ g S  .C .. .U T p.7.! r.X.B B B Q Y ",
"5.q.| Q Y 1.! x p.r.U |  .P R Y Q B } [ G S T X.U R | U e.8.3. .[ } X.N X. ...[ .. .Y p.} R T V 2.1.",
"]  .1.N T y.q.W y.e.U ! 5.R  .R V X.1.Y ! e.e.2.B P R Y q.b.2.>.z...C B R  ...1.%.R P 6.B  .E N +.| ",
"/ Q Q +.@.5.6.| X.! 6.5.R ] R [ N 3.u.Q | v.8.U ( X. .7.|  .! R p.6.P U T  .X.Q -.! | 8.} X.1.[ ( [ ",
"Q X.} z.r.! R 2.X.| 5.X.[ R ..| G | 6.T P q.7.x C } r.+.B P  .O.R 6.i.8.+.x.9.Y Q 1.! 2.| V 3. .R 1.",
"8.B n ! 6. .[ 6.! | E ..} Y ! ! 8.1.Q k [ 6.5.[  . .8.Q R  .u.p.C R 9.6. .3. .Q Q  .V T 2.C S 6.z.2.",
"..Y R E Q ! ! ] | 1.r.2.U l >.7.p.U N ..} 6. .P X.6.6.1.e.y.5.Q ) ! ! R R B ! U Y U 6 V a.u.&.8.( T ",
"] 1.u.Q  . .B } 3.2.+.1.! 5.5...6.R ' Q P T R N Y Y Q r.7.3.P k C [ 3.R k c &.P [ I l R q.u.q. .C c ",
"Q 9.q.| ! ! Y 2. .X.U T +.X.R z.3.Y c | ..x | U R ..[ R >.! B h c [ Q Q Y G ! 2. .B P r.X.T P ,.| ( ",
"|  .| | [ Q W D Q T I P O.N Q 6.R Q Y u.X.N } ! ` p.2.6 E U N  .Q T | X.W 9.x.[ T ..T |  .] ] s.1.] ",
"X.V P Y | o. .w  .P x 1.1.c | T 3.i.X. .H B 1.2.T R E Y [ V x 5.2.T V / } d.p.Q B c | | v Q a.r. .[ ",
"r.Q ! !  .+.6.>.! &.I R Y ! ] P 2.y...| Q T  .i.P B 5.9.| U 5.6.3.2.Y 6 } e.I 6. .T |  .| R  .2.x R ",
"U 6.q.Q [ U J | ! E B k T 2.P E Y ` ..1.1.` P 8.S Y w.Q X.8.7.y.X.Q 6.Y Y 2.X.X. . .Y ! 2.X.` 6.Q ! ",
" .| 3.P [ P Q [ | [ T y.z.X.z Q X.U R 1.! N U | I Y q.] 7.u.] C E >.} 4. .Y q.( I 6.1.R c ! R ..T N ",
"I e.X.T #.r.2.| X. .U X.} P C 6. .c B T 7.U R 8.S ` #.I Y X.M H :.1.| r.i.Y V | x I 2.R  .R B T R h ",
"k Q  .I @.r.2. .| x R R T P T d. .x { C O. .P J   y 6.H R 4./ ! | C 1.1.r.5.g Q 6.C N R 8.[ )  .| 2.",
"X.l U 2. .E X.| U C p.E [ [ T y.{ B | Y L 8.z a V.3 q X.4.| c Q [ ..9.I | ..N 5.i.| T X.R R y.| R 6.",
"5.R I p.u.r.6.2...6.8.R P I E [ R E | ..;.9 s J.D.g.7 y ..c E X.T r.i.B  .X.T 9.5. .Q [ n x 9.! T Y ",
"$.y.e.5.1.8.9.8.! ,.T ' k T 8.B B 1. .| K t H.K.B.g.g.% 9 Y 6.[ N Y !  .| X...( X. .B I T N R 1.} ( ",
"! 9.5.U l E i.O.T $.B .. .7.y.P Y x.4.= # A.B.S.g 6 b m 3 > e.B k | U U [ | [ b ` ! R N Y e.[ 8.y. .",
"E ! ] k P X.3.Q P | C ] 6.>.| +.a.u.2.$ @ K.Z.g.f.; ; g.4 & X.2.+.2.| ] 8.7.Q v x 5.E c $.y.u.7.5.E ",
"[ C 2.! Q 7.] X.Y Z R T Y 0 U 8.r.1.R = + K.F.g.g.3 : g.3 - x | 8.X.+.{ 2.X.7.i. .Q X.` B  .y.8.R B ",
"| 7.8.5.B T 8.7.X.| E R C ] Q 9.E ;.! $ + K.D.g.g.3 : g.3 * P | Q G [ V E X.} 5.q.6.o.M A  .a.q.U I ",
" .8.5.| x ^ 5.! r.8.P T B ..Q Q |  .] = + K.D.g.g.3 : g.3 2 5.7.Q U | Q E Q Z R  .e.x 6 | X.~ q. .v ",
"Q X. . .Z j ] |  .6.P O.7.| C C r.....= + K.D.g.g.3 : g.3 - 7.} R ,.u.U x U ! 6.p. .G ! +...C | r.E ",
"E P ]  .Q x 5.7.[ r.8.U |  .R ]  .! 2.- O K.G.g.g.3 : g.3 $ t.+.b H 6.R P R U X.i.E T i.t.} B Q 6.! ",
"..N U P R 2.e.E R { +.| l Q 4.|  .P { < p H.C.N.g.: : g.: 2 $.E B N Q 3.y.X.C | r.8.R ! N C 5.....X.",
"+.T E Y | t.e.5.X.V Y 1.P [ @.P &.$.C X o l.h.G.m.d f _ g 1 S U 6.C ] 6...` | 6.7.q.| I x  .w.B k X.",
"Y X.| ! | T  .q.7.C K ! [ Y Q x Q 8.5.9 8 g g.k.n.j.M.4 5 ! r.[ R x T i.] V  .] Z 7.T ` !  .X.U c  .",
"T V P ` I E B E E x ..2.| | ! 1.U  .x.2.P , 6 g.g.g._ = } X.u.t.N A  .6.E R +.| C V g X.t.c P | [ ! ",
"t.N C P B ..T E Y B R X.Q R 8.y.] R  ...c S > 6 g.m * 5.Y Y R T +.@.|  .| | >.6.U k U 2.@.X.T .. .+.",
"0.H ( X.] (  .|  .e.C C 1.! 1./ C E R 1.c Y u.i . r | X.| U I W i.V ( t. .7.5.Y R ! 8.E R u.Q T ! 6.",
">.;.! ..Y R 7.k Q 9...( Q *.! ] R  .! ! ! X.r.w.R C c  .X.R [ 5.! T C R | R Y ..t.5.P Q 8.Q T Y W $.",
"..X.| x E Z ..! H B ! ] C Y  .7.8.| Y R } T W  .2.Q T 2.U | 7.R X.| B I E U  .{ | q.I C } n C 5.*.~ ",
"X.p.C l R E ! Q k ( ! 6.[ [ | | Q ! C ..] c ( ..d.R | $.B 6.R I [ k +.U Y u.X.C | 5.|  .B 6 ` #.R 6.",
"[ u.Y [ 7.| C V } ] 6.5.C T Q Q S ! !  .X.X.[ X.1. .q.X.} X.A Y R x 7.5.S E  .Q u.7.G 5.$.z R r.| T ",
"Q  .X.e.! G ( C 6.q.7.C m ) [ ! |  .2.U ! X.9.! @. .| [ [ C ! q.X.R ! |  .| N G i.7.c R 1.! Y 5.2.P ",
"i.R +.@.W ;.V v >.i.u.` [ k R | e.5. .P X.N  . .| / n x Y W T  .W ! 7.u.e.X.T [ +.T | 7.Q W | 3.u...",
"8.P 6.R X.2.S y.2. . .B ! &.| V ! ! Y X.} N N T Y ` V Y ! 6.T Z E | +.X.6.!  .Q 8...R | ` @.i.| C ! ",
"! T 1.Q X.&. .x.6.] T !  .p.#.Y 1.2.T &.C B P } ..! B C v T ] Y  ...V [ 6.1.E Y i.6.P { ` B  .X.I  .",
"T X.r.X.Q  .T T } C 3.i.y.4.r.a.R Q [ T | | R U 6.! [ C n ..R Y Q P z ..X.@.X.E U I ` P R B b &.c.3.",
"Q 1.6. .R R ! l g T u. .=.8.X.u.N G  .| | C / R 1.| B | | u.R R E l r...G Q N S x C ..R >.5.z S u. .",
"2.2.6.6.2.P 2.w.J Q P I <.H ! P N  .Q ! E P B U ..[ R 1.$.6.B B 7.Q 2.1.C B x S E z U 2.7.u -.o.| 1.",
"R  . .8.x.Y Y y.R P T [ } R E S X.[ T ! 9.1.Y R R 1.Q  .[ ..| U | 4.5.>.3...2.Q W C | y. .W 5.y.| | ",
"R ! R R 9.R Q | k P Y W { } N ! 8.Y T ` ,.8.K e | ! 2.4.X...Y | ( H 6.7.8.X. .Q ..` ..Q 5.r.Q Q R ! ",
"#.2.N P P E y.U U 4.4.W %.R j P P  .[ ( T | >.F +.X.E  .a.7.n  .` k Q 3.X.| [ !  .| v Y r.q.R $.R X.",
" .a.T B } X.1.Y [ C y.H w  .U Q C P !  .I B 3.C B 8. .P  .! k N H | ..! | r.] Q u.1.U | 6.C P 2.T ' ",
"1. .+.] E  .Y 8.X.g U X.{ } u.8.P E r.3.X.N R  .! a.4.T l Y R | X.2.T P Y 6.R U 5. .+.}  .P V [ U c "
};
