/* XPM */
static char *result[] = {
/* columns rows colors chars-per-pixel */
"50 50 240 2 ",
"   c #010101",
".  c #0D0302",
"X  c #030E02",
"o  c #160908",
"O  c #061606",
"+  c #011B02",
"@  c #0B1B04",
"#  c #13150D",
"$  c #28160D",
"%  c #37190C",
"&  c #3C1A14",
"*  c #022403",
"=  c #032A04",
"-  c #0B2C05",
";  c #082509",
":  c #182B0B",
">  c #073706",
",  c #113509",
"<  c #1D3512",
"1  c #2A2206",
"2  c #2F260F",
"3  c #352317",
"4  c #551901",
"5  c #54330F",
"6  c #412218",
"7  c #5A2617",
"8  c #642B12",
"9  c #793A19",
"0  c #430B21",
"q  c #611629",
"w  c #553125",
"e  c #653528",
"r  c #7B3C2A",
"t  c #094607",
"y  c #154607",
"u  c #155608",
"i  c #0A4611",
"p  c #0B591B",
"a  c #1D5C16",
"s  c #364909",
"d  c #265A09",
"f  c #2F4117",
"g  c #1B6906",
"h  c #007D00",
"j  c #0E691F",
"k  c #13651A",
"l  c #236A08",
"z  c #28790A",
"x  c #2D7015",
"c  c #397511",
"v  c #075B2D",
"b  c #365028",
"n  c #0B6723",
"m  c #146B22",
"M  c #0F7426",
"N  c #02722B",
"B  c #0B7729",
"V  c #0E7B29",
"C  c #147727",
"Z  c #117C2A",
"A  c #535409",
"S  c #72481A",
"D  c #517115",
"F  c #6D6D12",
"G  c #6A4F25",
"H  c #745825",
"J  c #616932",
"K  c #07304C",
"L  c #5F5541",
"P  c #566A5D",
"I  c #5B5A64",
"U  c #A33F27",
"Y  c #8C521C",
"T  c #A44107",
"R  c #8A4623",
"E  c #A2512A",
"W  c #896F39",
"Q  c #8D7235",
"!  c #A86D3E",
"~  c #A17131",
"^  c #8D6A43",
"/  c #9A724B",
"(  c #AF784A",
")  c #887F7C",
"_  c #028400",
"`  c #088801",
"'  c #0C8B02",
"]  c #148304",
"[  c #148C04",
"{  c #1B8D06",
"}  c #1E8A08",
"|  c #0E9203",
" . c #0A9A02",
".. c #149404",
"X. c #1C9406",
"o. c #149A04",
"O. c #1C9A06",
"+. c #1F9308",
"@. c #17821B",
"#. c #218E07",
"$. c #2A820A",
"%. c #238D08",
"&. c #2C8B0B",
"*. c #36880D",
"=. c #358C0D",
"-. c #229407",
";. c #229C07",
":. c #259408",
">. c #2B940A",
",. c #259B08",
"<. c #2C9C0A",
"1. c #32950B",
"2. c #3C940F",
"3. c #339C0C",
"4. c #3B9D0E",
"5. c #2A8C19",
"6. c #3F8912",
"7. c #06A101",
"8. c #1CA206",
"9. c #1AA506",
"0. c #22A407",
"q. c #21A907",
"w. c #26A208",
"e. c #2CA30A",
"r. c #27A908",
"t. c #2CAB0A",
"y. c #34A30C",
"u. c #3BA40E",
"i. c #34AB0C",
"p. c #3CAB0D",
"a. c #2DB509",
"s. c #34B30B",
"d. c #3CB20E",
"f. c #3EB80E",
"g. c #3EA210",
"h. c #09842B",
"j. c #11842C",
"k. c #15882B",
"l. c #0E982E",
"z. c #148D31",
"x. c #069933",
"c. c #129334",
"v. c #2C802B",
"b. c #338A21",
"n. c #388B24",
"m. c #2C9428",
"M. c #379727",
"N. c #1DA22D",
"B. c #3FA229",
"V. c #37AE29",
"C. c #3CB52A",
"Z. c #28AA32",
"A. c #40910F",
"S. c #419B0F",
"D. c #4B8414",
"F. c #558516",
"G. c #439411",
"H. c #449C11",
"J. c #4C9D13",
"K. c #549B16",
"L. c #42A40F",
"P. c #41AB0F",
"I. c #42B30F",
"U. c #44B90F",
"Y. c #44A310",
"T. c #4AA411",
"R. c #45AB10",
"E. c #4BAB11",
"W. c #53A613",
"Q. c #52AC13",
"!. c #5AAC16",
"~. c #45B210",
"^. c #4BB212",
"/. c #46BC10",
"(. c #4CBA12",
"). c #53B314",
"_. c #5BB315",
"`. c #54BA13",
"'. c #5CBC15",
"]. c #6CA813",
"[. c #519527",
"{. c #708F27",
"}. c #41A429",
"|. c #4DA72B",
" X c #45AB2B",
".X c #4BAC29",
"XX c #45B72D",
"oX c #49B42D",
"OX c #50B22C",
"+X c #47A937",
"@X c #4EBD30",
"#X c #57B131",
"$X c #6CB73C",
"%X c #3CCA2F",
"&X c #59C315",
"*X c #68C518",
"=X c #4DC331",
"-X c #51C732",
";X c #63C227",
":X c #62EE3D",
">X c #629552",
",X c #BBB400",
"<X c #A99432",
"1X c #CEB029",
"2X c #84C404",
"3X c #BAE10E",
"4X c #E1D30E",
"5X c #FFFE01",
"6X c #FFFF08",
"7X c #C0CC21",
"8X c #9E8541",
"9X c #B48242",
"0X c #A6BF5E",
"qX c #989265",
"wX c #AE926E",
"eX c #A6A470",
"rX c #C99350",
"tX c #E5AA76",
"yX c #A6C86D",
"uX c #FBC17A",
"iX c #4A78A2",
"pX c #1D91B8",
"aX c #4DAB91",
"sX c #4BD7B6",
"dX c #00A4DB",
"fX c #00C5E6",
"gX c #50FECA",
"hX c #A59F9F",
"jX c #B3AB91",
"kX c #A59AA2",
"lX c #C2AA92",
"zX c #E8BB8F",
"xX c #E0C79C",
"cX c #DFCFB0",
"vX c #FDD0A5",
"bX c #FBE2B9",
"nX c #E3DDDE",
"mX c #E6EEDB",
"MX c #FFFFE8",
"NX c #FFFFFD",
/* pixels */
"`.Y.:.i.$.6.t.y.e.] ;.p.R.3.P.p.w.e.u.y.<.<.y.y.L.W.p.y.r.r.).E.y.;.+.>.L.Q.p.S.$.[ w.,.{ >.y.,.-.<.",
"d.t.0.#.S.R.3.' >.1.e.e.:.O.O.u.u.-.%.3.L.>.p.u.:.4.2.L.p.i.y.:.;.O.3.u.u.u.>.u.J.>.4.u.3.' ,.e.{ [ ",
"P.q.| :.I.u.1.| p.R.R.,.o.o.{ 4.T.-.r.i.u.1.3.4.+.y.u.y.<.=.p.9._ :.L.O.p.4.:.;.`.^.u.E.u.+.O.X.3.<.",
"Y.Q.y.3.>.Y.4...).(.:.u.u.-.<.:.1.X.t.w.%.#.,.p.:.e.4.;.~.^.P.y.,.t.p...p.u.i.e.y.u.:.`.t.<.,...L.L.",
"w.u.u.X.,.(.Q.1.(.~.-.4.4.<.u.<.O.s.L.>.4.~.~.R.+.-.3.>.Q.*XP.L.&Xt.O.o.>.p.i.L.S.>.-.T.+.p.1...s.y.",
"9.3.3.s.s.R.J.u.p.4.T.Y.<.r.<.e.+.I.Q.y.y.*XE.-.8.i.L.P.y.u.4.1.'.W.-.:.,.4.p.y.D.4.y.E.t.p.R.w.0.e.",
"<.p.t.&X).4.,.R.p.y.Y.p.y.<.i.y.#.y.R.>.;.Q.R.[ o.i.(.d.X.-.u.s.,.T._.R.f.'.E.&.3.L.3.R.y...f.H.<.L.",
"E.X.| 4.T.u.r.T.4.y.1.i.t.>.4.u.P.L.4.` 3.R.Y.<.u.y.E.3.,.4.`.`.O.1.Q.R.y.~.u.4.4.u.o.,.R.O.{ T./.P.",
"i.>.,.1.1.4.y.w.y.P.~.R.:.] H.R.`.:.O.y.y.E.D 5 ^ ^ W 8XQ 7 T.y.;.4.4.1.e.X.4.-.>.:.h ..'.^.H.R.r.,.",
"w.T.).3.p.4.{ s.P.R.P.u.4.g.Y.i.T.<.8.y.;.u d ( 1X1X1X9X! r 2X].[.<.R.,.' X.H.:.<.;.[ <.Q.Q.Q.Y.;.{ ",
"3.W.).3.4.4.:.u.u.u.,.-.p.p.4./.~.:.{ 3.i.  5 uX5X5X5X9X( ( 5X4X/ 4.4.3.>.%.3.p.u.-.;.~.p.e.+.H.i.O.",
"y.p.y.y.y.e.2.$.y.,.;.,.s.O.3.R.3.3.>.T.@ M.oX$X;X;X;X#X#X+X6X4X^ ^ {.y.2.Q.'.y.,.i.,.y.u.,.e.].L.w.",
"p.o.-.1.y.a.u.c u.-.[ L.L.{ y.<.I.'.$.d < M.m.@.C C C k.5.Z 3X7X( 1X<Xz y.'.`.4.X.X.y.y.{ y.'.^.u.e.",
"P.4.4.3.u.s.T.H.4.S.;.<.>.4.;.,.P.R.= : :X= + = - = = ; * + m.$XtX6X4X0 A.P.0.R.u.:.y.u.y.1.L.P.{ ,.",
":.T.Q.3.e.,.*.y.4.>.-.' ,.^.+.1.l - k p i n.b.b.6.b.b.b.n.n.u a +XA A ( A.P.u.u.y.u.>.4.P.y.;.R.<.3.",
"L.y.I.-.y.#.>.i.y.e.,.(./.P.{ 1.l   Z M >  XoXoXoXoXoXoXoX-Xi i h.  3 <XJ.>.Q.0.0.T.u.1.#.4.e.i.<...",
"O.~.R.;.f.(.P.y.p.u.:.p.e.O.o.L.c   * d -X}.}.}.}.}.}.}.}.}.@Xn.>   y (._.>.o.y.[ ;.P.,.u.,.+.<.1.` ",
"' 3.4.0.s.^.P.u.y.[ <.<.,.4.F 0X>X@ p k x }.}.}.}.}.}.}.}.}.x k n = b yX{.{._ 3.T.O.O.<.E.e.9.p.y.R.",
"p.] %.R.u.1.p.y.:.O.`.1.3.D ~ zXeX= z.n + M. X}.}.}.}.}.B.+X, > l.t J vX9XQ O.S.).4.,.p.,.>.(.y.e.R.",
"T.<.O.`.).^.T.P.y.E.E.3.G / MXMXjX+ M Z h. X.XB.}.}.}.}. XOXz.h.k.t P NXMXxX8 Q.T.u.3.e.o.] W.u.:.>.",
"p.(.~.Y.L.E.E.E.y.J.;.q.A J lXxXeX+ Z Z n m.M..X}.}.}..XB.m.M M c.= J vXlXwXA 9.p.y.-.;.;.o.,.L.r.9.",
"4.W.Y.:.] 2._.s.<.Y.O.y.u.F.4 ~ F * j.N : N k..X}.}.}.|.M.N , i l.> s ! 8 A e.| ;.u.>.o.1.R.y.R.).u.",
"1.4.e.` :.p.R.y.+.y.O.,.T.G.4.Y I fXv ;   M j.V }..XoXk.Z j.O + > dXpXT F.J.4.#.[ u.1.{ u.(.^.R.Y.1.",
"<.O.p.4.<.R.r.p.&.+.<.w.<.z -.5 P gXb :   M Z N m.M.M.V V z.  O 1 sXaX4 G.p.P.!.u.4.p.0.O.u.).E.<.+.",
"y.E.E.Y.X.:.E.~.P.y.1.:.O.w.1.O F 5XE 7   M j.V B B B Z Z z.X $ q 5X,XX z u.r.R.W.R.a. .%.u.'.Q.:.;.",
"u.E.Y.y.[ 7.T.4.^.^.X.<.-.i.<.z d A 9XH   p j j.Z Z B Z M p   3 rXA s l &.3.-.,.u.^.[ h 3.p.4.Q.g.-.",
"3.g.p.y.+.` w.y.u.T.-.s.P.y.O.O.*.@ W G   - i j.Z Z Z j.n -   2 rX# d :.[ >.4.T.`.u.%.4.d.i.O.u.^.1.",
"<.;.e.4.3.[ g.R.y.~.E.:.y.u.1.r.L.1.-       ; c.M Z V c.p         &.T.,.-.,.:.p.!.3.,._./.r.X.<.T.4.",
"p.[ -.;.e.P.~.3.3.r.P.y.] 3.I.i.$.y t = -   @ j V Z V m i   ; - p > g ~.(.p.O.i.).E.<.4...O.P.y.i.u.",
"d.,.3.>.y.~.~.T.p.o.>.u.-.t.s.#.d . k.j.t X O , M V j.i ;   i k Z.O > Y.i.8.4.T.p.!.y.O.[ u._.X.' p.",
">.i.y.4.y.;.y.Q.I.o.=.4.e.1.<.* # % nXmX* M p   M z.c.O ; c.t >XNXiXK @ #...u.w.:.R.,.w.y.S.R.+.X.u.",
",.o.:.;.;.1.-.>.3.[ y.p.y.&.d $ 6 4 hX) 2 j.n   p j n O ; x.3 L kXI w % , g d.e.O.o._ p.(.[ +.i.y.1.",
"/...O.:.-.i.,.1.>.{ <.p.<.g   9 R R . o U j.p   > , i X @ x.R 7   8 9 Y # @ u.T.:.' :.P.s.d.,.p.p.p.",
"!.&.8.p.r.9.g.y.u.~.O.0.Y.d   cXbXxX< a |.S 8 9 .     7 e e [.x * lXvXmX3 @ L.1.:.4.E.1.,.).1.;.3.E.",
"H.A.3.p.>.,.p.| y.W.i.8.4.d , hXjXwX< a %XH H W < : : H H S C.m.O qXeXlXf y :.t./.T.O.3.E.3.,.>.4.u.",
"i.p.y.[ 1.:.y.4.&.X.4.;.;.>.y.O       ; -XC.C.V.XXoXXXV.C.C.@Xx       O z <.u.t.u.Q.;.O.t.| O.Y.D 4.",
"p.`.O.] <.1.4.1.' O.S.T.e.e.y.z y   6 3 , k.N.C.@X=X=XXXZ.l.< < w   ; g &.^.p.O.y.T.y.u.X.h 0.f.<.Y.",
"e.).>.e.R.y.O.9.t.r.T.L.O.,.3.<.g @ w & . m v.[.n.n.n.|.[.C o o e # d Y.#.1.4.3.`.R.%.Y.g.{ ,.E.y.:.",
"3.u.p.~.3.&.9.O.R.Q.P.O. .q.y.3.y.1.; o e R R E .     9 R R e &   z 3.u.u.y.o.:.Q.R.{ <.Y.4.>.T.P.;.",
"'.>.f.s.2.G.o.} H._.).0.r.' <.y.R.T.l y $ % % 6 u u t 2 % % $ : u 2.R.).(.p.:.<.d.,.y.~.1.1.u.I.`.i.",
"~.:.T.<.p.P.#.~.P.u.u.X.S.S.e.O.u.4.>.1.  X X   $.r.o.- X X X y 3.y.d.p.Y.4.u.<.E.i.>.y.0.s._.y.+.4.",
"4.,.L.3.p.L.u.&XE.,.,.4.u.`.f.<.L.P.<.4.O.+.-.a.i.3.-.O.-.,.;.>.u.y.o.e.E.T.=.>._.T.:.r.w.O.u.p.0.y.",
",.p.^.p.3.4.,.;.r.O.I._.(.U.R.'.<.1.e.<.y.y.,.:.L.4.,.O...i.<.>.4.;.{ y.p.s.i.1.-.;.w.;.>.X.| 4.*Xd.",
"3.L.T.u.<.<.y.z ` ,.).4.F.E.p.`...%.u.y.3.O.9.<.P.y.X.y.i.).>.e.=.] ^.i.-.3.X.-.[ O.i.,.H.Y.} { _.4.",
"P.R.T.E.P.-.p.Q.=.3.-.;.K.&.4.-.X.u.<.4.>.>.X.,.y.e.<.L.g.R.+.X.p.y.R.u.O.X.[ #.=.{ :.R.R.D D.a.y.u.",
"<.4.L.P.&X<.>.`.<.:.,.e.r.<.1.#.p.e.,.4.W.L.>.<.3.L.3.u.e.i.4.+.y.~.Y.H.~.i.P.3.2.o.y.(.p.2.Y.(.y.u.",
"<.4.<.<.Q.>.3.y.' -.>.4.r.t...4.E.>.,.r.T.E.6.c u.4.p.U.p.i.>.y.0.>.T.R.E.p.u.3.i.0.i.y.T.^.<.3.<.4.",
"f.P...:.:.1.(.:.:.I.I.2.A.<._ ;.-.u.w.O.,.y.S.$.s.p.1.p.'.R.' p.;.' 3.I.p.y.e.4.u.y.} >.^.^.1.g.<.p.",
"u.'.,.X.t.p.L.&.w.O.U.>.c y.:.3.O.:.4.u.;.X.p.O.-.^.u.:.u.4.| { :.y.y.u.3.^.w.3.).L.:.y.E.O.;.T.,.9.",
"u.u.I.w.1.u.,.E.u.` >.P.r.e.).E.;.1.^.P.p.O.<.u.4.`.I.,.] >.,.y.p.P.,.:.1.R.<.>.L.4.d.r.u.-.o.e.-.X."
};
