/* XPM */
static char *result[] = {
/* columns rows colors chars-per-pixel */
"50 50 237 2 ",
"   c #060202",
".  c #0E0002",
"X  c #0C000C",
"o  c #080A0C",
"O  c #120105",
"+  c #15020A",
"@  c #09170B",
"#  c #0B0611",
"$  c #160F13",
"%  c #190914",
"&  c #1C0C19",
"*  c #091515",
"=  c #081A17",
"-  c #0D1A16",
";  c #161113",
":  c #181315",
">  c #1B1419",
",  c #141A19",
"<  c #181919",
"1  c #07210B",
"2  c #002D0B",
"3  c #003707",
"4  c #082718",
"5  c #013514",
"6  c #013B14",
"7  c #07341A",
"8  c #053D1B",
"9  c #143010",
"0  c #091B21",
"q  c #082A26",
"w  c #003920",
"e  c #08312A",
"r  c #0E3C34",
"t  c #123E33",
"y  c #02430A",
"u  c #014908",
"i  c #03570C",
"p  c #054816",
"a  c #01431B",
"s  c #014B1E",
"d  c #04541B",
"f  c #07630C",
"g  c #176709",
"h  c #137A0A",
"j  c #066517",
"k  c #136614",
"l  c #087516",
"z  c #177C15",
"x  c #296A10",
"c  c #014621",
"v  c #064922",
"b  c #005822",
"n  c #0A453C",
"m  c #084A3B",
"M  c #0B513B",
"N  c #007626",
"B  c #064E49",
"V  c #085549",
"C  c #0B554C",
"Z  c #045A4F",
"A  c #0D5A4D",
"S  c #135749",
"D  c #065B53",
"F  c #0D5D51",
"G  c #125D51",
"H  c #0C6455",
"J  c #0D6857",
"K  c #0C6658",
"L  c #0E6C5A",
"P  c #146454",
"I  c #196755",
"U  c #166957",
"Y  c #156C5A",
"T  c #196E5A",
"R  c #047857",
"E  c #13735E",
"W  c #1A715C",
"Q  c #12785F",
"!  c #0F7362",
"~  c #137562",
"^  c #137A63",
"/  c #1A7D65",
"(  c #147C69",
")  c #0E8A04",
"_  c #198B06",
"`  c #079400",
"'  c #189706",
"]  c #1C9A06",
"[  c #0C881E",
"{  c #1B8F15",
"}  c #1C9912",
"|  c #268C0A",
" . c #358E0E",
".. c #299607",
"X. c #259C07",
"o. c #249409",
"O. c #239C0B",
"+. c #2B9B0A",
"@. c #33960E",
"#. c #349B0C",
"$. c #3A9D0E",
"%. c #368A1A",
"&. c #2B9915",
"*. c #359D14",
"=. c #1CA609",
"-. c #18A71B",
";. c #1DB219",
":. c #25A508",
">. c #2CA40B",
",. c #2CAC0C",
"<. c #33A20B",
"1. c #3CA40D",
"2. c #34AB0B",
"3. c #3DAA0D",
"4. c #23B20B",
"5. c #39B40D",
"6. c #29A915",
"7. c #37A814",
"8. c #29B617",
"9. c #35B213",
"0. c #3CB414",
"q. c #36B71B",
"w. c #008A2A",
"e. c #0D8C28",
"r. c #06972B",
"t. c #139721",
"y. c #13AE2B",
"u. c #00A232",
"i. c #00B737",
"p. c #30B424",
"a. c #40990F",
"s. c #448512",
"d. c #489914",
"f. c #42A50E",
"g. c #42AC0F",
"h. c #4DAC0D",
"j. c #42B20F",
"k. c #43A411",
"l. c #49A614",
"z. c #43AB12",
"x. c #4BAB13",
"c. c #53AD13",
"v. c #4BB411",
"b. c #47B813",
"n. c #56B614",
"m. c #3CC417",
"M. c #28C922",
"N. c #48C315",
"B. c #5EC416",
"V. c #63CB16",
"C. c #008C5C",
"Z. c #00915F",
"A. c #198265",
"S. c #17866E",
"D. c #19856D",
"F. c #178969",
"G. c #198869",
"H. c #019564",
"J. c #039967",
"K. c #049C6A",
"L. c #0A9E6C",
"P. c #109D6D",
"I. c #168B72",
"U. c #189676",
"Y. c #228B6A",
"T. c #239A74",
"R. c #329C76",
"E. c #06A06C",
"W. c #09A16E",
"Q. c #0BA570",
"!. c #13A572",
"~. c #1CA573",
"^. c #14AA75",
"/. c #1BAA75",
"(. c #1DAE79",
"). c #19B179",
"_. c #23A16E",
"`. c #22A276",
"'. c #21A977",
"]. c #2AA57B",
"[. c #26AB79",
"{. c #2BAD7B",
"}. c #34AC7D",
"|. c #23B57D",
" X c #2DB27E",
".X c #32B27E",
"XX c #38B27F",
"oX c #179C81",
"OX c #17A283",
"+X c #30AE83",
"@X c #2CB681",
"#X c #27B980",
"$X c #2EBB83",
"%X c #32B583",
"&X c #33BC84",
"*X c #3AB984",
"=X c #32C286",
"-X c #36C389",
";X c #3CC48B",
":X c #35CA8B",
">X c #39D18E",
",X c #44C88F",
"<X c #47C88E",
"1X c #4BCD92",
"2X c #54CD93",
"3X c #4CD094",
"4X c #52D196",
"5X c #5CD69A",
"6X c #67D498",
"7X c #62DA9E",
"8X c #77D69A",
"9X c #74E09F",
"0X c #67DDA1",
"qX c #6ADEA1",
"wX c #74D5A0",
"eX c #6EE2A4",
"rX c #74E4A6",
"tX c #7BE5A5",
"yX c #76E6A8",
"uX c #7AE7A9",
"iX c #7EEBAC",
"pX c #81E6A8",
"aX c #84ECAC",
"sX c #8AEEAD",
"dX c #86F2AD",
"fX c #8CF1AF",
"gX c #8DEEB2",
"hX c #87F0B0",
"jX c #8CF2B2",
"kX c #93F4B3",
"lX c #98F7B6",
"zX c #97F8B6",
"xX c #9AF8B6",
"cX c #9CFBBA",
"vX c #A3FEBD",
"bX c #AAFFC1",
"nX c #B1FFC4",
/* pixels */
"2.2.o.| f.3.' _ &.{ O.2.,.4.:.N.5.=.>.9.9.4.8.8.6.0.9.0.m.8.m.2.,.4.,.b.0.b.#.<.d. .X.$.$.o.) >.X._ ",
"=.' ) j.3.a.' X.*.6.6.l f f g x g f k k x k b j j j j k k k k f f i g g k { :.o.g.n.1.f.x..._ X.X...",
"j.>.+.<.#.a.) >.x.1.8.p   X X X X X X X X X X X + # X X X X X X X X X X X 1 ,.2.<.v...1.N.:.#.] ] h.",
"f.x.X.| g.n.#.$.V.>.;.p X : : $ $ ; ; : : ; : : : : : : : : : ; $ $ : : + 9 m.j.f.$._ 1.g.' 3._ ] j.",
"O.#.+.,.3.x.a.7.&.e.y.p * * - - - - * * * * * * * * * * * * * = - - - * = 9 7...%.%.} *.1.:.c.@.=.,.",
"3.<.b.q.*.&.#.y.1     n I.! F.=X$X$X( ^ ^ ( ^ ^ ^ ^ ^ ^ ^ ^ ! @X&X=XU.! I.A . ; o r.r.e.7.:.:.n...o.",
">.=.2.l.1.X.1.q.1 & O n D.P Q -X{.$XL Y W Y W T W W W W W W D @X X=XF.G D.V   > @ w.r.w.e.o.` f.f.v.",
"| ) o.$.1.6.6.p.@     n S.P Q =X{.{.M Z Z Z Z Z Z Z Z Z Z Z m T.@X=XA.A D.A   .   u.u.u.r.0.$.@.j.5.",
"$.z.&.3.&.1 @ 1 S L J Y W P Q =X{.{.6XwXwXwXwXwXwXwXwXwXwXwX8X.X'.=XD.A W W H H G 4 7 1 N p.n.c.1._ ",
"k.n.1.3.{ X >   J G./ W T P Q -X{.^.kXfXdXdXdXdXdXdXdXdXdXdXcX|.'.-XF.G W W / / A.X & . N r.&.$.$.:.",
"l.x.8.8.t.  O   H / W P A C L ^.J.J.lXcXlXzXlXlXlXlXlXlXlXzXbXQ.C.).Q B A G W W E   O . N i.i.r.d.2.",
"-.{ p i p n n n Y W U ^ U.F.R.7X1X1X,X<X,X,X,X,X,X,X,X,X,X,X<X1X2X7X}.F.U.G.T T E m n S v d p N p.x.",
"6.d   + # I.D.D.W T C U.>X|.-XbXlXcXK.J.L.L.L.L.L.E.L.L.L.L.Z.aXvXnX3X).>X XD W Y D.D.U.0 + O p 8.o.",
"N.x   + # ! G P P P V F.|.J.(.vXsXkX/.{..X'.~.~.~.~.~.[..X.XQ.iXkXvX-XC.|.U.V P P P P ( = O O p M.' ",
"&.x q 0 q A.^ Q Q Q L R.-X.X-XtXeX0X X[.{. X|.#X|. X#X*X[.{.{.qXeXpX<X{.&X}.Y ^ A.^ E U.t = 4 v e.z ",
"  e U.( ( =X=X=X=X-X).5XbXvXrXC.K.K.{. X!.rXbXzXzXzXvXiXE. X{.'.L.C.4XnXvXrX^.-X=X=X$X:XD.~ oXn O + ",
"+ e D.P J $X[.{.[..XJ.1XkXaXqXK.%X X{..XK.5XkXrXtXtXaXyXL. X{.{.XXJ.3XkXsX5XJ. X[.{.[.=X~ G D.n O < ",
"O e S.I L $X@X%X{. XK.1XlXsXeXK.!.{.{..XE.5XxXhXaXaXjXuX'.{. X!.!.L.5XkXkX7XK. X.X$X|.=XA.P D.n O < ",
"+ e S.T Y J L H ].%XK.1XlXtXtXtXdXaX!.[.[. X(.^.^.^.^./. X{.'.rXsXaXpXtXfX7XJ..X XL J W W I D.n O < ",
". e D.T T T T D [.XXK.3XkXtXtXaXpXjX!.[.{.{.{.{.{..X{.[.{..XK.uXfXaXtXtXkX7XK..X XK U T T E S.n . < ",
"X e S.T E T T F [.&XJ.1XlXtXtXtXtXhX^.[.{.!.J.J.K.K.K.~. X{.W.rXaXtXtXtXkX7XK..X XL T T T E S.n . < ",
"O e S.T T T W F [.*XK.1XlX9XtXtXtXhX^.[.'.2XqX7X7X7X0X5X!..XW.rXsXtXtXtXjX7XK. X XJ T ~ E U D.n . < ",
"+ e S.T T T T F '.&XK.1XlXtXtXtXtXaX^.{.K.rXvXfXjXkXcXaXK..XW.rXaXtXtXtXkX7XK..X XL T W T Y U.n . < ",
". e S.I T T T F [.*XK.1XlXrXpXkXlXcX(.{.J.5XkXtXtXtXaXyXW.%XE.aXvXkXaXrXkX7XJ.%X#XJ T T W T S.n O < ",
"+ e S.T Y T W D [.&XK.1XlXpXyX5X4X4X.X.XJ.7XkXtXtXtXsXrXW..X~.4X5X2XtXaXfX7XK. X XJ T T ^ W D.n . < ",
". e S.T T T T H [..XK.1XlXsXeXC.L.K.[..XJ.7XkXtXtXtXaXyXW. X.X~.K.C.1XlXfX7XJ..X|.K T T T I D.n . < ",
"+ e S.I Y Y I A [.*XK.3XvXkXrXH.{.{. X{.K.0XcXaXsXaXkXaXW..X{.'.{.H.4XvXxXqXJ.%X XH U U T ~ D.n . < ",
"X e S.T Y L E J `.%XL.,XgXaX7X~.(..X{.{.~.7XaXrXrXyXiX7X[.{.{.(.(.~.2XsXaX6X~. X XE ! W W T D.n O < ",
"+ e D.U Y =X$X&X{.{. X{.Q.H.|.vXkXjX!.[.{.{.W.L.W.L.L.Q. X{.'.pXlXvX,XZ.E.!.{. X X&X$X:XA.P D.n . < ",
". e S.U L $X[.{. X{.[.[..X~.|.lXrXaX^. X.X X.X%X.X%X.X.X X.XE.rXpXlX-XL.}. X X[.|.{.[.=X^ G D.n . < ",
"+ e S.I L $X{.{.%X$X$X$X&X(.;XvXkXkXW.K.E.W.E.W.W.W.E.W.E.W.J.iXcXvX1X).&X=X=X$X-X X[.-XQ P D.n . < ",
"X e G.P ! $X[.%X/ L E ! E J A.=X(.(.rXuXrXyXrXyXrXrXrXyXrXrXiX#X'.=XY.H E E L E E |.{.&XQ P D.n . < ",
"O e S.I J $X[.&X! A U U U A E |._.W.dXsXaXaXaXaXpXaXaXpXaXpXcX^.P.#XF.C T I P P H @X[.&X~ G D.n O < ",
"O e OX( D.=X=X>XE U W Y T P ^ =X{.W.kXcXlXlXcXlXcXxXxXxXlXlXvX.X~.-XG.F T T ~ T Y =X=X:XU.( ^.V O & ",
"5 4 r e t Y.G.G.Y U T T W P Q =X[.'.<X;X;X,X;X;X,X;X,X;X,X;X-X.X{.=XG.F T T ~ E W Y.F.T.S e r w 5 7 ",
"b 7 O . o J G A Y W Y W W P Q =X[..X~.L.W.L.L.L.J.L.L.L.L.W.L.[.{.=XG.G T T T T T P C ~ * . O 4 b s ",
"6 4 > % * S.A.A.Y T T T T P Q =X{.{.{..X{.%X&X&XXX=X&X*X{. X X{.{.=XF.A W T ~ ~ ~ / / U.q + & 4 6 6 ",
"j v , - 1 A A A W W T W W H Q =X[. X{.{..X].T.'.`.`.`.T..X{.[. X{.=XG.F T T T T / G C R 4 @ < w j d ",
"8.w.6 s a . .   H ^ T Y T P Q =X[.{. X[.-X~ B A A A C K %X{.{.{.[.=XG.P T T T W !     . 4 s 6 l M.-.",
"0.h 2 s 8 < < X H / W Y T P Q =X[.[. X{.-X( P W W W Y ! =X{. X[.{.=XF.A T W / W ~ o : > 4 c 2 j q.h.",
"7.z 3 y a , <   A A.^ W W P ~ =X[.{.+X@X&X^ P Y T T Y L $X|.+X+X[.=XD.F T E ^ ~ R * , > 8 p y j p.3.",
"o.&.t.} e.a a s * o   m D.P Q =X{.%XY H K Y W T T T T T K K H {..X=XG.G A.A o o o 5 a 8 [ =.6.q.] _ ",
"<.3.2.5.#.y c s - > O n D.G Q =X[.#XJ U Y Y T Y T T T T T T A {. X=XA.A / A   > , 8 c 3 _ X._ :.j.j.",
"1.x.g.>.o.3 2 6 , > O m oX^ G.:X=X=XJ U T W T W T T T T T T H |.:X:XU.~ U.U + : > 5 6 2 l 7.X.) d.V.",
"k.d.x.$.o.| | [ v 4 8 4 q 4 t A.~ Q Y T T T Y T E T T T Y W U E Q G.M - q 4 8 7 a l h | &.z.s.| :.c.",
"0.k.h.v.<.O.B.p.i p d 4 O O = ~ G P T T T T T T T T I T T T T P G ( e . + - v s u } o.5.c.3. .f.5.<.",
"@.1.+.n.z.| 1.4.y 2 6 4 & + 0 oXD.D.D.D.D.D.S.D.D.S.D.D.D.D.D.D.Y.OXr + % * 6 7 3 } ] b.3.f.2.1.x.>.",
"$.+.O.1.#.#.z.) h g l v - 4 4 S n n n n n n n n n n n n n n n n n M e 4 4 7 l j l O.:.<.#.n.k.#...+.",
"n.' _ X...x.<.| 5.m.m.l y d 8 O . . . O . . . O . . . O . . . . O O 4 d a j y.8.0.z.o._ $.n.<.#.1.+.",
"c.7.' 2.2.x.| <.] +.b.g 5 s 8 > < < < < < < < < < < < < < < < < : : 7 s 3 i ;.X.x.v.@.+.z.1.' >.f.] "
};
